<?xml version="1.0" encoding="UTF-8"?>
<svg id="Calque_1" xmlns="http://www.w3.org/2000/svg" version="1.1" viewBox="0 0 37.7 37.7">
  <!-- Generator: Adobe Illustrator 29.5.0, SVG Export Plug-In . SVG Version: 2.1.0 Build 137)  -->
  <defs>
    <style>
      .st0 {
        fill: #c55c58;
      }

      .st1 {
        opacity: .4;
      }

      .st2 {
        opacity: .6;
      }
    </style>
  </defs>
  <g class="st1">
    <g class="st2">
      <rect class="st0" x="0" y="0" width="37.7" height="37.7" rx="8.3" ry="8.3"/>
    </g>
  </g>
  <g>
    <path class="st0" d="M25.7,14.6h-13.9c-.3,0-.5.2-.5.5v13c0,1,.8,1.9,1.9,1.9h11.1c1,0,1.9-.8,1.9-1.9v-13c0-.3-.2-.5-.5-.5ZM17.2,26.6c0,.4-.3.7-.7.7s-.7-.3-.7-.7v-8.4c0-.4.3-.7.7-.7s.7.3.7.7v8.4ZM21.8,26.6c0,.4-.3.7-.7.7s-.7-.3-.7-.7v-8.4c0-.4.3-.7.7-.7s.7.3.7.7v8.4Z"/>
    <path class="st0" d="M28.1,11.3h-4.4c-.1,0-.2-.1-.2-.2v-1.2c0-1.3-1-2.3-2.3-2.3h-4.6c-1.3,0-2.3,1-2.3,2.3v1.2c0,.1-.1.2-.2.2h-4.4c-.5,0-.9.4-.9.9s.4.9.9.9h18.6c.5,0,.9-.4.9-.9s-.4-.9-.9-.9ZM16,11.1v-1.2c0-.3.2-.5.5-.5h4.6c.3,0,.5.2.5.5v1.2c0,.1-.1.2-.2.2h-5.1c-.1,0-.2-.1-.2-.2Z"/>
  </g>
</svg>