<?xml version="1.0" encoding="UTF-8"?>
<svg id="Calque_1" xmlns="http://www.w3.org/2000/svg" version="1.1" viewBox="0 0 37.7 37.7">
  <!-- Generator: Adobe Illustrator 29.5.0, SVG Export Plug-In . SVG Version: 2.1.0 Build 137)  -->
  <defs>
    <style>
      .st0 {
        fill: #646e78;
      }

      .st1 {
        fill: #ccc;
      }

      .st2 {
        opacity: .6;
      }
    </style>
  </defs>
  <g class="st2">
    <rect class="st1" x="0" y="0" width="37.7" height="37.7" rx="8.3" ry="8.3"/>
  </g>
  <g>
    <path class="st0" d="M30.5,17.3c-2.7-3.1-7.2-6.4-11.7-6.3s-9,3.2-11.7,6.3c-.8.9-.8,2.3,0,3.2,1.8,2,6.3,6.3,11.7,6.3s9.9-4.3,11.7-6.3c.8-.9.8-2.2,0-3.1ZM14.1,18.8c0-2.7,2.1-4.9,4.7-4.9s4.7,2.2,4.7,4.9-2.1,4.9-4.7,4.9-4.7-2.2-4.7-4.9h0Z"/>
    <path class="st0" d="M16.8,18.8c0,1.2.9,2.1,2,2.1s2-1,2-2.1-.9-2.1-2-2.1-2,1-2,2.1"/>
  </g>
</svg>