<?xml version="1.0" encoding="UTF-8"?>
<svg id="Calque_1" xmlns="http://www.w3.org/2000/svg" version="1.1" viewBox="0 0 37.7 37.7">
  <!-- Generator: Adobe Illustrator 29.5.0, SVG Export Plug-In . SVG Version: 2.1.0 Build 137)  -->
  <defs>
    <style>
      .st0 {
        fill: #646e78;
      }

      .st1 {
        fill: #ccc;
      }

      .st2 {
        opacity: .6;
      }
    </style>
  </defs>
  <g class="st2">
    <rect class="st1" x="0" y="0" width="37.7" height="37.7" rx="8.3" ry="8.3"/>
  </g>
  <g>
    <path class="st0" d="M21.4,11.9c0,0-.2-.1-.3-.1-.1,0-.2,0-.3.1l-9.9,9.9c-.2.2-.2.5,0,.6,0,0,0,0,0,0l4.5,4.5c0,0,.2.1.3.1.1,0,.2,0,.3-.1l9.9-9.9c.2-.2.2-.5,0-.6l-4.5-4.5Z"/>
    <path class="st0" d="M10,23.5c-.2-.2-.5-.2-.7,0,0,0,0,.1-.1.2l-1.4,5.7c0,.2,0,.3.1.4.1.1.3.2.4.1l5.7-1.4c.2,0,.3-.2.3-.3,0-.2,0-.3-.1-.4l-4.3-4.3Z"/>
    <path class="st0" d="M28.7,10.9l-1.9-1.9c-.9-.9-2.3-.9-3.2,0l-1.3,1.3c-.2.2-.2.4,0,.6,0,0,0,0,0,0l4.5,4.5c.2.2.4.2.6,0,0,0,0,0,0,0l1.3-1.3c.9-.9.9-2.3,0-3.2Z"/>
  </g>
</svg>