<?xml version="1.0" encoding="UTF-8"?>
<svg id="Calque_1" xmlns="http://www.w3.org/2000/svg" version="1.1" viewBox="0 0 53 54">
  <!-- Generator: Adobe Illustrator 29.5.0, SVG Export Plug-In . SVG Version: 2.1.0 Build 137)  -->
  <defs>
    <style>
      .st0 {
        fill: #646e78;
      }

      .st1 {
        fill: #d8d800;
        fill-rule: evenodd;
      }
    </style>
  </defs>
  <rect class="st0" x=".2" y=".2" width="52.5" height="53.5" rx="16.4" ry="16.4"/>
  <path class="st1" d="M17.2,22.3h-4.3c-.9,0-1.6-.7-1.6-1.6s.7-1.6,1.6-1.6h4.2c.6-1.6,2.1-2.7,3.8-2.7s3.3,1.1,3.8,2.7h15.5c.9,0,1.6.7,1.6,1.6s-.7,1.6-1.6,1.6h-15.6c-.7,1.4-2.1,2.3-3.7,2.3s-3-.9-3.7-2.3ZM40.1,35.1c.9,0,1.6-.7,1.6-1.6s-.7-1.6-1.6-1.6h-4.2c-.6-1.5-2.1-2.5-3.8-2.5s-3.1,1-3.8,2.5h-15.5c-.9,0-1.6.7-1.6,1.6s.7,1.6,1.6,1.6h15.5c.6,1.5,2.1,2.5,3.8,2.5s3.1-1,3.8-2.5h4.2Z"/>
</svg>