<?xml version="1.0" encoding="UTF-8"?>
<svg id="Calque_1" xmlns="http://www.w3.org/2000/svg" version="1.1" viewBox="0 0 53 54">
  <!-- Generator: Adobe Illustrator 29.5.0, SVG Export Plug-In . SVG Version: 2.1.0 Build 137)  -->
  <defs>
    <style>
      .st0 {
        fill: #d8d800;
      }

      .st1 {
        fill: #646e78;
      }
    </style>
  </defs>
  <rect class="st1" x=".2" y=".2" width="52.5" height="53.5" rx="16.4" ry="16.4"/>
  <g>
    <path class="st0" d="M28.4,28.7c0-1.1.9-1.9,1.9-1.9s1.9.9,1.9,1.9v5.4c0,.2.1.3.3.3h3.5c2.8,0,5.1,2.3,5.1,5.1v1.6c0,.2-.1.3-.3.3h-14.8c0,0-.2,0-.2-.1-3-3.3-2.8-3.1-2.8-3.1-.7-.8-.6-2,.2-2.7s2-.6,2.7.2l2,2.3c0,0,.2.1.3,0,.1,0,.2-.2.2-.3v-9.1Z"/>
    <path class="st0" d="M28,15.4c0,1.6,1.3,2.8,2.8,2.8,1.6,0,2.8-1.3,2.8-2.8h0c0-1.6-1.3-2.8-2.8-2.8s-2.8,1.3-2.8,2.8"/>
    <path class="st0" d="M26.1,24.5c0,0-.2,0-.2-.1,0,0,0-.2,0-.2,0-2.8,2.3-5.1,5.1-5.1s5.1,2.3,5.1,5.1c0,0,0,.2,0,.2,0,0-.1.1-.2.1h-9.5Z"/>
    <path class="st0" d="M14.2,22.4c0,1.6,1.3,2.8,2.8,2.8s2.8-1.3,2.8-2.8-1.3-2.8-2.8-2.8-2.8,1.3-2.8,2.8"/>
    <path class="st0" d="M12.2,31.4c0,0-.2,0-.2-.1,0,0,0-.2,0-.2,0-2.8,2.3-5.1,5.1-5.1s5.1,2.3,5.1,5.1c0,0,0,.2,0,.2,0,0-.1.1-.2.1h-9.5Z"/>
  </g>
</svg>