<?xml version="1.0" encoding="UTF-8"?>
<svg id="Calque_1" xmlns="http://www.w3.org/2000/svg" version="1.1" viewBox="0 0 28.7 30.3">
  <!-- Generator: Adobe Illustrator 29.5.0, SVG Export Plug-In . SVG Version: 2.1.0 Build 137)  -->
  <defs>
    <style>
      .st0 {
        fill: #ccc;
      }
    </style>
  </defs>
  <path class="st0" d="M14.4,22.9c.1,0,.3,0,.4-.1.4-.3,8.6-7,8.6-11.8S19.3,2,14.4,2c-5,0-9,4-9,9s8.2,11.5,8.6,11.8c.1,0,.2.1.4.1ZM14.4,7.4c1.7,0,3,1.3,3,3s-1.3,3-3,3-3-1.3-3-3,1.3-3,3-3Z"/>
  <path class="st0" d="M3,26.5c0,1,.8,1.8,1.8,1.8h19.1c1,0,1.8-.8,1.8-1.8s-.8-1.8-1.8-1.8H4.8c-1,0-1.8.8-1.8,1.8Z"/>
</svg>