<?xml version="1.0" encoding="UTF-8"?>
<svg id="Calque_1" xmlns="http://www.w3.org/2000/svg" version="1.1" viewBox="0 0 28.7 30.3">
  <!-- Generator: Adobe Illustrator 29.5.0, SVG Export Plug-In . SVG Version: 2.1.0 Build 137)  -->
  <defs>
    <style>
      .st0 {
        fill: #ccc;
      }
    </style>
  </defs>
  <path class="st0" d="M24,6h-2.8c-.1,0-.3-.1-.3-.3v-1.8c0-.6-.5-1-1-1s-1,.5-1,1v4.8c0,.4-.3.8-.8.8s-.8-.3-.8-.8v-2.3c0-.3-.2-.5-.5-.5h-6.4c-.1,0-.3-.1-.3-.3v-1.8c0-.6-.5-1-1-1s-1,.5-1,1v4.8c0,.4-.3.8-.8.8s-.8-.3-.8-.8v-2.3c0-.3-.2-.5-.5-.5h-1.5c-1.1,0-2,.9-2,2v17.3c0,1.1.9,2,2,2h19.4c1.1,0,2-.9,2-2V8c0-1.1-.9-2-2-2ZM23.5,25.4H5.2c-.3,0-.5-.2-.5-.5v-12.2c0-.3.2-.5.5-.5h18.4c.3,0,.5.2.5.5v12.2c0,.3-.2.5-.5.5Z"/>
</svg>