<?xml version="1.0" encoding="UTF-8"?>
<svg id="Calque_1" xmlns="http://www.w3.org/2000/svg" xmlns:xlink="http://www.w3.org/1999/xlink" version="1.1" viewBox="0 0 259.6 50.7">
  <!-- Generator: Adobe Illustrator 29.5.0, SVG Export Plug-In . SVG Version: 2.1.0 Build 137)  -->
  <defs>
    <style>
      .st0 {
        fill: none;
      }

      .st1 {
        fill: #1a3533;
      }

      .st2 {
        clip-path: url(#clippath);
      }
    </style>
    <clipPath id="clippath">
      <rect class="st0" x="1.3" y="266.8" width="1748.6" height="643.3" rx="38.1" ry="38.1"/>
    </clipPath>
  </defs>
  <g class="st2">
    <image width="2121" height="1414" transform="translate(-7.7 -56.9) scale(.9)" xlink:href="../../../../../Downloads/Partage de RandonneÌes avec des Gens Formidables.jpg"/>
  </g>
  <g>
    <path class="st1" d="M74.6,50.7c-3.5,0-6.7-.8-9.4-2.4-2.7-1.6-4.9-3.8-6.4-6.6-1.5-2.8-2.3-6.1-2.3-9.8s.8-6.9,2.3-9.8c1.5-2.8,3.6-5,6.4-6.6,2.7-1.6,5.8-2.4,9.3-2.4s6.5.8,9.3,2.4c2.5,1.5,4.5,3.5,5.9,6.1.2.3,0,.7-.3.8l-4.2,1.9c-.3.1-.6,0-.8-.2-.9-1.7-2.2-3-3.9-4-1.8-1.1-3.9-1.6-6.3-1.6s-4.4.6-6.2,1.7c-1.8,1.1-3.2,2.7-4.2,4.8-1,2-1.5,4.4-1.5,7s.5,5,1.5,7c1,2,2.5,3.6,4.3,4.8,1.8,1.1,3.9,1.7,6.3,1.7s4.4-.6,6.3-1.8c1.7-1.1,3-2.6,4-4.5.1-.3.5-.4.8-.3l4.1,1.9c.3.1.4.5.3.8-1.4,2.8-3.4,5-6,6.6-2.7,1.7-5.8,2.6-9.3,2.6Z"/>
    <path class="st1" d="M110.2,50.7c-3.5,0-6.6-.8-9.3-2.4-2.7-1.6-4.8-3.8-6.4-6.6-1.5-2.8-2.3-6.1-2.3-9.8s.8-6.9,2.3-9.8c1.5-2.8,3.6-5,6.3-6.6,2.7-1.6,5.8-2.4,9.2-2.4s6.7.8,9.4,2.4c2.7,1.6,4.8,3.8,6.3,6.6,1.5,2.8,2.3,6.1,2.3,9.8s-.8,6.9-2.3,9.8c-1.5,2.8-3.6,5-6.3,6.6-2.7,1.6-5.8,2.4-9.3,2.4ZM110.2,45.3c2.4,0,4.5-.6,6.3-1.7,1.8-1.1,3.2-2.7,4.2-4.7,1-2,1.5-4.4,1.5-7s-.5-5-1.5-7c-1-2-2.5-3.6-4.3-4.7-1.8-1.1-3.9-1.7-6.3-1.7s-4.4.6-6.2,1.7c-1.8,1.1-3.2,2.7-4.2,4.7-1,2-1.5,4.4-1.5,7s.5,5,1.5,7c1,2,2.5,3.6,4.3,4.8,1.8,1.1,3.9,1.7,6.3,1.7Z"/>
    <path class="st1" d="M176.3,7.2c-1,0-1.8-.4-2.5-1.1-.7-.7-1.1-1.6-1.1-2.5s.4-1.9,1.1-2.6c.7-.7,1.6-1,2.5-1s1.9.3,2.6,1c.7.7,1,1.5,1,2.6s-.3,1.8-1,2.5c-.7.7-1.5,1.1-2.6,1.1ZM173.4,49.2V14.5c0-.3.3-.6.6-.6h4.6c.3,0,.6.3.6.6v34.7c0,.3-.3.6-.6.6h-4.6c-.3,0-.6-.3-.6-.6Z"/>
    <path class="st1" d="M214.1.8v18.1c0,.5-.6.6-.8.3-1-1.3-2.1-2.9-3.4-3.8-2.3-1.6-4.9-2.4-7.9-2.4s-6,.8-8.5,2.4c-2.4,1.6-4.3,3.8-5.7,6.6-1.4,2.8-2,6.1-2,9.8s.7,7,2,9.8c1.4,2.9,3.3,5.1,5.7,6.6,2.4,1.6,5.3,2.4,8.5,2.4s5.7-.8,7.9-2.4c1.3-.9,2.5-2.6,3.4-3.9s.8-.2.9.3l.2,4.8c0,.3.2.4.5.4h4.5c.3,0,.5-.2.5-.5V.8c0-.3-.2-.5-.5-.5h-4.8c-.3,0-.5.2-.5.5ZM208.8,43.7c-1.6,1.1-3.5,1.7-5.6,1.7s-4.3-.6-6-1.7c-1.8-1.1-3.2-2.8-4.2-4.8-1-2.1-1.5-4.4-1.5-7s.5-5,1.5-7c1-2.1,2.4-3.7,4.1-4.8,1.7-1.1,3.7-1.7,6-1.7s4,.6,5.7,1.7c1.6,1.1,2.9,2.8,3.8,4.8.9,2.1,1.4,4.4,1.4,7s-.5,5-1.4,7c-.9,2.1-2.2,3.7-3.8,4.8Z"/>
    <path class="st1" d="M250.1,43.6c-1.7,1.2-3.9,1.8-6.4,1.8s-4.5-.5-6.4-1.6-3.3-2.6-4.3-4.7c-.7-1.5-1.2-3.2-1.4-5.1s.4-1.1,1-1.1h26.4c.4,0,.7-.3.7-.7,0-3.7-.7-7-2-9.8-1.3-3-3.2-5.3-5.7-6.9-2.4-1.7-5.3-2.5-8.7-2.5s-6.5.8-9.2,2.4c-2.7,1.6-4.7,3.8-6.3,6.6-1.5,2.8-2.3,6.1-2.3,9.8s.8,6.9,2.3,9.8c1.5,2.8,3.6,5,6.3,6.6,2.7,1.6,5.8,2.4,9.3,2.4s4.8-.4,6.8-1.1c2-.8,3.8-1.8,5.3-3.2,1.3-1.2,2.4-2.6,3.3-4.2s0-.9-.3-1.1l-3.6-1.8c-.4-.2-.8,0-1,.3-.9,1.7-2.2,3-3.7,4.1ZM237.6,19.5c1.7-.9,3.6-1.4,5.6-1.4s3.8.5,5.3,1.4c1.5.9,2.8,2.2,3.7,3.9.6,1.1,1,2.3,1.2,3.6s-.4,1.1-1,1.1h-19.4c-.6,0-1.1-.6-1-1.2.2-1.3.7-2.6,1.4-3.6,1.1-1.7,2.5-2.9,4.2-3.8Z"/>
    <path class="st1" d="M54,.7c0,.1,0,.3,0,.4,0,0,0-.1,0-.2,0,0,0-.2,0-.2Z"/>
    <path class="st1" d="M167.1,48.7l-11-18.8c-.2-.4,0-.9.3-1s.6-.3.9-.4c2.6-1.3,4.6-3.1,6.1-5.3,1.5-2.3,2.3-4.9,2.3-7.8s-.7-5.5-2.1-7.8c-1.4-2.3-3.3-4-5.8-5.3-2.5-1.3-5.3-1.9-8.5-1.9h-15.4c-.4,0-.7.3-.7.7v48c0,.4.3.7.7.7h4.6c.4,0,.7-.3.7-.7v-18c0-.4.3-.7.7-.7h8.6c.3,0,.5,0,.8,0s.5.1.6.4l11,18.7c.1.2.4.4.6.4h4.9c.6,0,.9-.6.6-1.1ZM139.3,24.1V6.5c0-.4.3-.7.7-.7h9.2c3.1,0,5.6.9,7.6,2.6,2,1.8,2.9,4.1,2.9,6.9s-.4,3.5-1.3,4.9c-.9,1.4-2,2.6-3.4,3.4-1.4.8-3,1.2-4.8,1.2h-10.2c-.4,0-.7-.3-.7-.7Z"/>
    <path class="st1" d="M49,36.5c-.3,0-.6,0-.8.3-.9,1.2-3.3,4.4-5.1,5.6-1.6,1.1-3.5,1.9-5.6,2.3h0s0,0,0,0c-1.1.2-2.3.3-3.6.3-2.6,0-5-.5-7.2-1.4-.6-.3-1.3-.6-1.9-1-2.3-1.3-4.1-3.1-5.5-5.4-.3-.4-.5-.9-.7-1.3-1.1-2.2-1.8-5.1-2.1-8,0-.8.4-1.5,1.2-1.8s.3,0,.5,0h14.6c5.9,0,11.4-2.1,15.6-6.2,1.8-1.8,3.3-3.9,4.4-6.1,0-.2.2-.3.2-.5,0,0,0,0,0-.1h0s0,0,0,0c.9-1.9,1.5-4,1.8-6.1,0-.6.4-4.3.6-6.1,0,0,0,0,0-.1,0,0,0,0-.1,0h0c-8.3,0-22.5,0-22.8,0-4.2.1-8,1.2-11.3,3.2-1.8,1.1-3.4,2.4-4.8,3.9-1.3,1.4-2.5,3.1-3.5,4.9-.3.5-.6,1.1-.8,1.7-.7,1.5-1.2,3.4-1.5,5.1-.2.8-.9,1.4-1.7,1.4H.2c0,0-.2,0-.2.2v4.8c0,0,0,.2.2.2h8.1c.9,0,1.6.8,1.7,1.7.3,4,1.2,7.9,2.9,11,.2.3.4.7.6,1.1,1.9,3.2,4.5,5.8,7.7,7.7,2,1.2,4.2,2.1,6.6,2.6,1.8.4,3.7.6,5.7.6s4.8-.3,6.9-.8c.7-.2,1.5-.4,2.2-.7,2.7-1,5-2.4,7-4.3,1-.9,1.9-2,2.7-3h0s0,0,0,0h.1c0-.1,0-.1,0-.1.6-.8,1.2-1.7,1.7-2.6s0-.9-.4-1.1l-4.7-1.4ZM17.1,18.7c.3-1.9.9-3.7,1.8-5.2.1-.2.3-.4.4-.6,1.5-2.4,3.6-4.2,6.1-5.5,2.3-1.2,4.5-1.8,10.3-1.8h12.1c.5,0,1,.2,1.3.7.3.4.4.9.3,1.4,0,.2-.1.4-.2.6-.7,2.1-1.7,4.1-3.2,5.9-.3.3-.5.6-.8,1-2.6,2.8-5.2,5.4-10.6,5.8,0,0-.3,0-5.5,0s-8.2,0-10.2,0h0c-.5,0-.9-.2-1.2-.6-.3-.4-.4-1.1-.4-1.6Z"/>
  </g>
</svg>