<?xml version="1.0" encoding="UTF-8"?>
<svg id="Calque_1" xmlns="http://www.w3.org/2000/svg" version="1.1" viewBox="0 0 21.2 19.9">
  <!-- Generator: Adobe Illustrator 29.5.0, SVG Export Plug-In . SVG Version: 2.1.0 Build 137)  -->
  <defs>
    <style>
      .st0 {
        fill: #d8d800;
      }
    </style>
  </defs>
  <path class="st0" d="M21.2,5.6c0-.4-.2-.8-.6-1.1L14.4.3c-.4-.3-1-.3-1.5,0l-5.2,3.8c-.2.1-.4.1-.5,0L2.1.3C1.5-.2.7,0,.3.5,0,.8,0,1.1,0,1.4v13c0,.4.2.8.6,1.1l6.2,4.2c.4.3,1,.3,1.5,0l5.1-3.8c.2-.1.4-.1.5,0l5.2,3.8c.2.2.5.3.8.3.7,0,1.3-.6,1.3-1.3,0,0,0,0,0,0V5.6ZM8.4,6c0-.1,0-.3.2-.4l3.9-2.9c0,0,.2,0,.2,0,0,0,.1,0,.1.1v11c0,.1,0,.3-.2.4l-3.9,2.9c0,0-.2,0-.2,0,0,0-.1,0-.1-.1V6ZM1.8,2.7c0,0,0-.2.1-.2,0,0,.2,0,.2,0l4.3,3.2c.1,0,.2.2.2.4v11c0,0,0,.2-.1.2,0,0-.2,0-.2,0l-4.3-3c-.1,0-.2-.2-.2-.4V2.7ZM19.4,17.3c0,0,0,.2-.1.2,0,0-.2,0-.2,0l-4.3-3.2c-.1,0-.2-.2-.2-.4V2.9c0,0,0-.2.1-.2,0,0,.2,0,.2,0l4.3,2.9c.1,0,.2.2.2.4v11.3Z"/>
</svg>