<?xml version="1.0" encoding="UTF-8"?>
<svg id="Calque_1" xmlns="http://www.w3.org/2000/svg" version="1.1" viewBox="0 0 29.6 18.6">
  <!-- Generator: Adobe Illustrator 29.5.0, SVG Export Plug-In . SVG Version: 2.1.0 Build 137)  -->
  <defs>
    <style>
      .st0 {
        fill: #646e78;
        fill-rule: evenodd;
      }
    </style>
  </defs>
  <path class="st0" d="M9.5,2.8c-.1,0-.3,0-.4.1-.1,0-.2.2-.2.3,0,0,0,0,0,.1l-1.6,3.7h5.2V2.8h-3ZM15,2.8v4.3h5.3l-2.2-3.6h0c-.2-.3-.3-.4-.4-.5-.1,0-.2-.1-.4-.1h-2.3ZM7.6.6C8.1.2,8.8,0,9.5,0h7.8c.7,0,1.4.2,2,.6.6.4.9.9,1.2,1.4l2.6,4.3,5.3,2.3c.2.1.5.3.6.5.4.6.6,1.2.6,1.9v2.4c0,.9-.4,1.8-1,2.4-.6.6-1.5,1-2.4,1h-1.5c0-.3.1-.6.1-.9,0-2.1-1.7-3.9-3.9-3.9s-3.9,1.7-3.9,3.9,0,.6.1.9h-5.8c0-.3.1-.6.1-.9,0-2.1-1.7-3.9-3.9-3.9s-3.9,1.7-3.9,3.9,0,.6.1.9h-.4c-.9,0-1.8-.4-2.4-1-.6-.6-1-1.5-1-2.4v-2.4c0-.7.2-1.3.6-1.9.1-.2.2-.3.4-.4l3.6-2.3,1.8-4.2c.2-.7.7-1.2,1.2-1.6ZM10.2,16c0,1.5-1.2,2.6-2.6,2.6s-2.6-1.2-2.6-2.6,1.2-2.6,2.6-2.6,2.6,1.2,2.6,2.6ZM23.6,16c0,1.5-1.2,2.6-2.6,2.6s-2.6-1.2-2.6-2.6,1.2-2.6,2.6-2.6,2.6,1.2,2.6,2.6Z"/>
</svg>