<?xml version="1.0" encoding="UTF-8"?>
<svg id="Calque_1" xmlns="http://www.w3.org/2000/svg" version="1.1" viewBox="0 0 30.5 21.1">
  <!-- Generator: Adobe Illustrator 29.5.0, SVG Export Plug-In . SVG Version: 2.1.0 Build 137)  -->
  <defs>
    <style>
      .st0 {
        fill: #646e78;
        fill-rule: evenodd;
      }
    </style>
  </defs>
  <path class="st0" d="M5.9,5.8H1.6c-.9,0-1.6-.7-1.6-1.6s.7-1.6,1.6-1.6h4.2c.6-1.6,2.1-2.7,3.8-2.7s3.3,1.1,3.8,2.7h15.5c.9,0,1.6.7,1.6,1.6s-.7,1.6-1.6,1.6h-15.6c-.7,1.4-2.1,2.3-3.7,2.3s-3-.9-3.7-2.3ZM28.9,18.6c.9,0,1.6-.7,1.6-1.6s-.7-1.6-1.6-1.6h-4.2c-.6-1.5-2.1-2.5-3.8-2.5s-3.1,1-3.8,2.5H1.6c-.9,0-1.6.7-1.6,1.6s.7,1.6,1.6,1.6h15.5c.6,1.5,2.1,2.5,3.8,2.5s3.1-1,3.8-2.5h4.2Z"/>
</svg>