<?xml version="1.0" encoding="UTF-8"?>
<svg id="Calque_1" xmlns="http://www.w3.org/2000/svg" version="1.1" viewBox="0 0 22.5 28.5">
  <!-- Generator: Adobe Illustrator 29.5.0, SVG Export Plug-In . SVG Version: 2.1.0 Build 137)  -->
  <defs>
    <style>
      .st0 {
        fill: #646e78;
      }
    </style>
  </defs>
  <path class="st0" d="M11.3,15c4.1,0,7.5-3.4,7.5-7.5S15.4,0,11.3,0,3.8,3.4,3.8,7.5s3.4,7.5,7.5,7.5ZM6.9,6.4c0-.2.2-.4.5-.5.2,0,.5,0,.7,0,1.6,1,3.5,1.5,5.4,1.5.5,0,.9,0,1.4-.1.2,0,.5,0,.6.2.2.2.4.5.3.8-.2,2.5-2.4,4.3-4.9,4.1-2.5-.2-4.3-2.4-4.1-4.9h0c0-.4,0-.7.2-1.1Z"/>
  <path class="st0" d="M11.3,16.5c-6.2,0-11.3,5-11.3,11.3s.3.8.8.8h21c.4,0,.8-.3.8-.8,0-6.2-5-11.3-11.3-11.3Z"/>
</svg>