<?xml version="1.0" encoding="UTF-8"?>
<svg id="Calque_1" xmlns="http://www.w3.org/2000/svg" xmlns:xlink="http://www.w3.org/1999/xlink" version="1.1" viewBox="0 0 15.5 18.8">
  <!-- Generator: Adobe Illustrator 29.5.0, SVG Export Plug-In . SVG Version: 2.1.0 Build 137)  -->
  <defs>
    <style>
      .st0 {
        fill: #6fb586;
      }

      .st1 {
        fill: #fff;
      }

      .st2 {
        fill: none;
        stroke: #646e78;
        stroke-miterlimit: 10;
      }

      .st3 {
        clip-path: url(#clippath);
      }
    </style>
    <clipPath id="clippath">
      <circle class="st2" cx="43.2" cy="-80.6" r="35"/>
    </clipPath>
  </defs>
  <g>
    <rect class="st1" x="2.8" y="2" width="10" height="10"/>
    <path class="st0" d="M14.3,0H1.2C.5,0,0,.5,0,1.2v4.9c0,5.3,2.9,10.2,7.6,12.7.1,0,.2,0,.4,0,4.7-2.5,7.6-7.4,7.6-12.7V1.2c0-.6-.5-1.2-1.2-1.2ZM12.4,6.2l-5.6,5.2c-.1.1-.3.2-.5.2-.2,0-.4,0-.6-.2l-1.9-1.9c-.3-.3-.3-.8,0-1.1.3-.3.8-.3,1.1,0,0,0,0,0,0,0l1.3,1.3,5-4.7c.3-.3.8-.3,1.1,0,.3.3.3.8,0,1.1Z"/>
  </g>
  <g>
    <g class="st3">
      <image width="2121" height="1414" transform="translate(-106.8 -147.6) scale(.1)" xlink:href="../../../../../Library/CloudStorage/SynologyDrive-Cinetique/[01] PHOTOTHÈQUE/03. BANQUE IMAGES/HUMAIN/GettyImages-1232764960.jpg"/>
    </g>
    <circle class="st2" cx="43.2" cy="-80.6" r="35"/>
  </g>
</svg>