<?xml version="1.0" encoding="UTF-8"?>
<svg id="Calque_1" xmlns="http://www.w3.org/2000/svg" version="1.1" viewBox="0 0 40.4 27.9">
  <!-- Generator: Adobe Illustrator 29.6.0, SVG Export Plug-In . SVG Version: 2.1.1 Build 207)  -->
  <defs>
    <style>
      .st0 {
        fill: #d8d800;
      }
    </style>
  </defs>
  <path class="st0" d="M3.5,27.2c5.4-7,14.7-15.9,23.4-17,1.1-.1,2,.6,2.2,1.7.2,1-.6,2-1.6,2.2,0,0,0,0,0,0-4.9,1.2-9.4,3.6-13,7.2-.6.6-.7,1.5-.2,2.2,3.3,4.4,9.3,4.1,14.2,1.7,6-3.1,12.9-14.8,12.1-23.4,0-.6-.4-1.1-.9-1.4-.5-.3-1.1-.4-1.6-.2-3.5,1-7.1,1.2-10.7.6-3.1-.5-6.3-.4-9.4.3-3.5.6-6.4,3-7.8,6.2-.6,1.9-.6,4,.2,5.9.3.6,0,1.3-.4,1.8-3.4,3-6.5,6.4-9.2,10-.6.9-.5,2.1.4,2.7s2.1.5,2.7-.4h0Z"/>
</svg>