<?xml version="1.0" encoding="UTF-8"?>
<svg id="Calque_1" xmlns="http://www.w3.org/2000/svg" xmlns:xlink="http://www.w3.org/1999/xlink" version="1.1" viewBox="0 0 18.3 18.5">
  <!-- Generator: Adobe Illustrator 29.5.0, SVG Export Plug-In . SVG Version: 2.1.0 Build 137)  -->
  <defs>
    <style>
      .st0 {
        fill: #f5ca62;
      }

      .st1 {
        fill: none;
        stroke: #646e78;
        stroke-miterlimit: 10;
      }

      .st2 {
        clip-path: url(#clippath);
      }
    </style>
    <clipPath id="clippath">
      <circle class="st1" cx="21.7" cy="-80.6" r="35"/>
    </clipPath>
  </defs>
  <path class="st0" d="M18.2,6.7c-.2-.5-.6-.8-1.1-.8h-4.8c-.2,0-.3-.1-.4-.3l-1.7-4.9C10.1.3,9.6,0,9.1,0c-.5,0-.9.3-1.1.8l-1.7,4.8c0,.2-.2.3-.4.3H1.2c-.5,0-.9.3-1.1.8-.2.5,0,1,.4,1.3l4.1,3.4c.1.1.2.3.1.4l-1.7,5.1c-.2.6.1,1.3.7,1.5.4.1.8,0,1.1-.2l4.2-3.1c.1-.1.3-.1.5,0l4.2,3.1c.5.4,1.2.3,1.7-.2.3-.3.3-.8.2-1.2l-1.7-5.1c0-.2,0-.3.1-.4l4.1-3.4c.4-.3.5-.8.3-1.3Z"/>
  <g>
    <g class="st2">
      <image width="2121" height="1414" transform="translate(-128.3 -147.6) scale(.1)" xlink:href="../../../../../Library/CloudStorage/SynologyDrive-Cinetique/[01] PHOTOTHÈQUE/03. BANQUE IMAGES/HUMAIN/GettyImages-1232764960.jpg"/>
    </g>
    <circle class="st1" cx="21.7" cy="-80.6" r="35"/>
  </g>
</svg>