<?xml version="1.0" encoding="UTF-8"?>
<svg id="Calque_1" xmlns="http://www.w3.org/2000/svg" version="1.1" viewBox="0 0 23 23">
  <!-- Generator: Adobe Illustrator 29.5.0, SVG Export Plug-In . SVG Version: 2.1.0 Build 137)  -->
  <defs>
    <style>
      .st0 {
        fill: #333;
      }
    </style>
  </defs>
  <path class="st0" d="M22.1,19.5l-4.3-4.3c2.9-4.4,1.7-10.3-2.6-13.3C10.8-1,4.8.2,1.9,4.6-1,8.9.2,14.9,4.6,17.8c1.6,1,3.4,1.6,5.3,1.6,1.9,0,3.7-.6,5.3-1.6l4.3,4.3c.7.7,1.9.7,2.6,0,.7-.7.8-1.9,0-2.6,0,0,0,0,0,0ZM9.9,3c3.7,0,6.8,3,6.8,6.8,0,3.7-3,6.8-6.8,6.8-3.7,0-6.8-3-6.8-6.8,0-3.7,3-6.8,6.8-6.8Z"/>
</svg>