<?xml version="1.0" encoding="UTF-8"?>
<svg id="Calque_1" xmlns="http://www.w3.org/2000/svg" version="1.1" viewBox="0 0 28 25.7">
  <!-- Generator: Adobe Illustrator 29.6.0, SVG Export Plug-In . SVG Version: 2.1.1 Build 207)  -->
  <defs>
    <style>
      .st0 {
        fill: #646e78;
        opacity: .4;
      }
    </style>
  </defs>
  <path class="st0" d="M27.8.2c-.2-.2-.4-.2-.6-.1L.4,11.1c-.2,0-.4.3-.4.6,0,.2.2.4.4.5l7.4,2.9c.2,0,.4,0,.5,0l9.8-7c.2-.2.6-.2.8,0,.2.2.2.6,0,.8l-8.2,7.9c-.1.1-.2.3-.2.4v7.9c0,.3.2.5.4.6.3,0,.5,0,.7-.3l3.7-6.3c0-.1.2-.2.4-.1l6.8,3.7c.3.2.6,0,.8-.2,0,0,0-.1,0-.2L28,.7c0-.2,0-.4-.2-.6Z"/>
</svg>