<?xml version="1.0" encoding="UTF-8"?>
<svg id="Calque_1" xmlns="http://www.w3.org/2000/svg" xmlns:xlink="http://www.w3.org/1999/xlink" version="1.1" viewBox="0 0 150 159.2">
  <!-- Generator: Adobe Illustrator 29.5.0, SVG Export Plug-In . SVG Version: 2.1.0 Build 137)  -->
  <defs>
    <style>
      .st0 {
        mask: url(#mask);
      }

      .st1 {
        filter: url(#luminosity-noclip);
      }

      .st2 {
        fill: url(#_É_πÌÚ_·ÂÁ_Ì_Á_Ë_130);
      }

      .st2, .st3 {
        mix-blend-mode: multiply;
      }

      .st3 {
        fill: url(#_É_πÌÚ_·ÂÁ_Ì_Á_Ë_129);
      }

      .st4 {
        fill: #f3d24b;
      }

      .st5 {
        filter: url(#luminosity-noclip2);
      }

      .st6 {
        fill: url(#_É_πÌÚ_·ÂÁ_Ì_Á_Ë_506);
      }

      .st6, .st7 {
        isolation: isolate;
        opacity: .8;
      }

      .st8 {
        mask: url(#mask-2);
      }

      .st9 {
        mask: url(#mask-3);
      }

      .st10 {
        mask: url(#mask-1);
      }

      .st7 {
        fill: url(#_É_πÌÚ_·ÂÁ_Ì_Á_Ë_74);
      }

      .st11 {
        fill: #f4c142;
      }

      .st12 {
        fill: url(#_É_πÌÚ_·ÂÁ_Ì_Á_Ë_157);
      }

      .st13 {
        fill: url(#_É_πÌÚ_·ÂÁ_Ì_Á_Ë_110);
      }

      .st14 {
        fill: url(#_É_πÌÚ_·ÂÁ_Ì_Á_Ë_547);
      }

      .st15 {
        fill: url(#_É_πÌÚ_·ÂÁ_Ì_Á_Ë_548);
      }

      .st16 {
        fill: url(#_É_πÌÚ_·ÂÁ_Ì_Á_Ë_549);
      }

      .st17 {
        fill: url(#_É_πÌÚ_·ÂÁ_Ì_Á_Ë_551);
      }

      .st18 {
        fill: url(#_É_πÌÚ_·ÂÁ_Ì_Á_Ë_552);
      }

      .st19 {
        fill: url(#_É_πÌÚ_·ÂÁ_Ì_Á_Ë_553);
      }

      .st20 {
        fill: url(#_É_πÌÚ_·ÂÁ_Ì_Á_Ë_550);
      }

      .st21 {
        fill: url(#_É_πÌÚ_·ÂÁ_Ì_Á_Ë_207);
      }

      .st22 {
        fill: url(#_É_πÌÚ_·ÂÁ_Ì_Á_Ë_205);
      }

      .st23 {
        fill: url(#_É_πÌÚ_·ÂÁ_Ì_Á_Ë_1101);
      }

      .st24 {
        fill: url(#_É_πÌÚ_·ÂÁ_Ì_Á_Ë_2074);
      }

      .st25 {
        fill: url(#_É_πÌÚ_·ÂÁ_Ì_Á_Ë_2073);
      }

      .st26 {
        fill: url(#_É_πÌÚ_·ÂÁ_Ì_Á_Ë_2072);
      }

      .st27 {
        fill: url(#_É_πÌÚ_·ÂÁ_Ì_Á_Ë_2071);
      }

      .st28 {
        fill: url(#_É_πÌÚ_·ÂÁ_Ì_Á_Ë_5506);
      }

      .st29 {
        fill: url(#_É_πÌÚ_·ÂÁ_Ì_Á_Ë_5502);
      }

      .st30 {
        fill: url(#_É_πÌÚ_·ÂÁ_Ì_Á_Ë_5504);
      }

      .st31 {
        fill: url(#_É_πÌÚ_·ÂÁ_Ì_Á_Ë_5505);
      }

      .st32 {
        fill: url(#_É_πÌÚ_·ÂÁ_Ì_Á_Ë_5522);
      }

      .st33 {
        fill: url(#_É_πÌÚ_·ÂÁ_Ì_Á_Ë_5521);
      }

      .st34 {
        fill: url(#_É_πÌÚ_·ÂÁ_Ì_Á_Ë_5501);
      }

      .st35 {
        fill: url(#_É_πÌÚ_·ÂÁ_Ì_Á_Ë_5503);
      }

      .st36 {
        fill: url(#_É_πÌÚ_·ÂÁ_Ì_Á_Ë_5491);
      }

      .st37 {
        fill: url(#_É_πÌÚ_·ÂÁ_Ì_Á_Ë_5484);
      }

      .st38 {
        fill: url(#_É_πÌÚ_·ÂÁ_Ì_Á_Ë_5487);
      }

      .st39 {
        fill: url(#_É_πÌÚ_·ÂÁ_Ì_Á_Ë_5486);
      }

      .st40 {
        fill: url(#_É_πÌÚ_·ÂÁ_Ì_Á_Ë_5483);
      }

      .st41 {
        fill: url(#_É_πÌÚ_·ÂÁ_Ì_Á_Ë_5482);
      }

      .st42 {
        fill: url(#_É_πÌÚ_·ÂÁ_Ì_Á_Ë_5485);
      }

      .st43 {
        fill: url(#_É_πÌÚ_·ÂÁ_Ì_Á_Ë_5481);
      }

      .st44 {
        fill: url(#_É_πÌÚ_·ÂÁ_Ì_Á_Ë_5492);
      }

      .st45 {
        fill: url(#_É_πÌÚ_·ÂÁ_Ì_Á_Ë_5471);
      }
    </style>
    <linearGradient id="_É_πÌÚ_·ÂÁ_Ì_Á_Ë_205" data-name="É‡‰¥πÌÚ ·ÂÁ Ì‡Á‚Ë 205" x1="-4.6" y1="444.6" x2="70.8" y2="355.3" gradientTransform="translate(0 504) scale(1 -1)" gradientUnits="userSpaceOnUse">
      <stop offset=".3" stop-color="#f5e087"/>
      <stop offset="1" stop-color="#ea51ba"/>
    </linearGradient>
    <linearGradient id="_É_πÌÚ_·ÂÁ_Ì_Á_Ë_207" data-name="É‡‰¥πÌÚ ·ÂÁ Ì‡Á‚Ë 207" x1="36.3" y1="438.1" x2="98.9" y2="375.5" gradientTransform="translate(0 504) scale(1 -1)" gradientUnits="userSpaceOnUse">
      <stop offset=".3" stop-color="#901cde"/>
      <stop offset="1" stop-color="#66109c"/>
    </linearGradient>
    <linearGradient id="_É_πÌÚ_·ÂÁ_Ì_Á_Ë_2071" data-name="É‡‰¥πÌÚ ·ÂÁ Ì‡Á‚Ë 207" x1="19" y1="404.1" x2="62.4" y2="360.7" xlink:href="#_É_πÌÚ_·ÂÁ_Ì_Á_Ë_207"/>
    <linearGradient id="_É_πÌÚ_·ÂÁ_Ì_Á_Ë_2072" data-name="É‡‰¥πÌÚ ·ÂÁ Ì‡Á‚Ë 207" x1="5.9" y1="375.6" x2="33.3" y2="348.1" xlink:href="#_É_πÌÚ_·ÂÁ_Ì_Á_Ë_207"/>
    <filter id="luminosity-noclip" x="0" y="46" width="113.2" height="113.1" color-interpolation-filters="sRGB" filterUnits="userSpaceOnUse">
      <feFlood flood-color="#fff" result="bg"/>
      <feBlend in="SourceGraphic" in2="bg"/>
    </filter>
    <filter id="luminosity-noclip1" x="0" y="-8443" width="113.2" height="32766" color-interpolation-filters="sRGB" filterUnits="userSpaceOnUse">
      <feFlood flood-color="#fff" result="bg"/>
      <feBlend in="SourceGraphic" in2="bg"/>
    </filter>
    <mask id="mask-1" x="0" y="-8443" width="113.2" height="32766" maskUnits="userSpaceOnUse"/>
    <radialGradient id="_É_πÌÚ_·ÂÁ_Ì_Á_Ë_130" data-name="É‡‰¥πÌÚ ·ÂÁ Ì‡Á‚Ë 130" cx="-1819.5" cy="4374.5" fx="-1819.5" fy="4374.5" r="7.4" gradientTransform="translate(-12043.2 5479.3) rotate(119.6) scale(5.9 -1.8)" gradientUnits="userSpaceOnUse">
      <stop offset="0" stop-color="gray"/>
      <stop offset="1" stop-color="#000"/>
    </radialGradient>
    <mask id="mask" x="0" y="46" width="113.2" height="113.1" maskUnits="userSpaceOnUse">
      <g class="st1">
        <g class="st10">
          <path class="st2" d="M17.9,158.3l95.3-44.2L45.1,46,1,141.3c-.6,1.5-3,7.6,3.5,13.5,7.1,6.3,12,4.2,13.5,3.5Z"/>
        </g>
      </g>
    </mask>
    <radialGradient id="_É_πÌÚ_·ÂÁ_Ì_Á_Ë_74" data-name="É‡‰¥πÌÚ ·ÂÁ Ì‡Á‚Ë 74" cx="-1819.5" cy="4374.5" fx="-1819.5" fy="4374.5" r="7.4" gradientTransform="translate(-12043.2 5479.3) rotate(119.6) scale(5.9 -1.8)" gradientUnits="userSpaceOnUse">
      <stop offset="0" stop-color="#fff"/>
      <stop offset="1" stop-color="#fff"/>
    </radialGradient>
    <filter id="luminosity-noclip2" x="0" y="46" width="113.2" height="113.1" color-interpolation-filters="sRGB" filterUnits="userSpaceOnUse">
      <feFlood flood-color="#fff" result="bg"/>
      <feBlend in="SourceGraphic" in2="bg"/>
    </filter>
    <filter id="luminosity-noclip3" x="0" y="-8443" width="113.2" height="32766" color-interpolation-filters="sRGB" filterUnits="userSpaceOnUse">
      <feFlood flood-color="#fff" result="bg"/>
      <feBlend in="SourceGraphic" in2="bg"/>
    </filter>
    <mask id="mask-3" x="0" y="-8443" width="113.2" height="32766" maskUnits="userSpaceOnUse"/>
    <radialGradient id="_É_πÌÚ_·ÂÁ_Ì_Á_Ë_129" data-name="É‡‰¥πÌÚ ·ÂÁ Ì‡Á‚Ë 129" cx="-2068" cy="3804.8" fx="-2068" fy="3804.8" r="7.4" gradientTransform="translate(-22054.1 -469.9) rotate(151.7) scale(9.3 -2.9)" gradientUnits="userSpaceOnUse">
      <stop offset="0" stop-color="#bfbfbf"/>
      <stop offset="1" stop-color="#000"/>
    </radialGradient>
    <mask id="mask-2" x="0" y="46" width="113.2" height="113.1" maskUnits="userSpaceOnUse">
      <g class="st5">
        <g class="st9">
          <path class="st3" d="M17.9,158.3l95.3-44.2L45.1,46,1,141.3c-.6,1.5-3,7.6,3.5,13.5,7.1,6.3,12,4.2,13.5,3.5Z"/>
        </g>
      </g>
    </mask>
    <radialGradient id="_É_πÌÚ_·ÂÁ_Ì_Á_Ë_506" data-name="É‡‰¥πÌÚ ·ÂÁ Ì‡Á‚Ë 506" cx="-2068" cy="3804.8" fx="-2068" fy="3804.8" r="7.4" gradientTransform="translate(-22054.1 -469.9) rotate(151.7) scale(9.3 -2.9)" gradientUnits="userSpaceOnUse">
      <stop offset="0" stop-color="#3e065f"/>
      <stop offset="1" stop-color="#3c065d"/>
    </radialGradient>
    <linearGradient id="_É_πÌÚ_·ÂÁ_Ì_Á_Ë_550" data-name="É‡‰¥πÌÚ ·ÂÁ Ì‡Á‚Ë 550" x1="139.3" y1="449.7" x2="122" y2="460.8" gradientTransform="translate(0 504) scale(1 -1)" gradientUnits="userSpaceOnUse">
      <stop offset="0" stop-color="#f6cc63"/>
      <stop offset="1" stop-color="#d4379d"/>
    </linearGradient>
    <linearGradient id="_É_πÌÚ_·ÂÁ_Ì_Á_Ë_553" data-name="É‡‰¥πÌÚ ·ÂÁ Ì‡Á‚Ë 553" x1="95" y1="472.3" x2="56.4" y2="350.5" gradientTransform="translate(0 504) scale(1 -1)" gradientUnits="userSpaceOnUse">
      <stop offset=".3" stop-color="#f5e087"/>
      <stop offset="1" stop-color="#d4379d"/>
    </linearGradient>
    <linearGradient id="_É_πÌÚ_·ÂÁ_Ì_Á_Ë_157" data-name="É‡‰¥πÌÚ ·ÂÁ Ì‡Á‚Ë 157" x1="107.7" y1="444.3" x2="48.4" y2="402.7" gradientTransform="translate(0 504) scale(1 -1)" gradientUnits="userSpaceOnUse">
      <stop offset="0" stop-color="#f5e087"/>
      <stop offset="1" stop-color="#fff"/>
    </linearGradient>
    <linearGradient id="_É_πÌÚ_·ÂÁ_Ì_Á_Ë_549" data-name="É‡‰¥πÌÚ ·ÂÁ Ì‡Á‚Ë 549" x1="105" y1="420.6" x2="100.4" y2="412.3" gradientTransform="translate(0 504) scale(1 -1)" gradientUnits="userSpaceOnUse">
      <stop offset="0" stop-color="#ef963b"/>
      <stop offset="1" stop-color="#eb5c2d"/>
    </linearGradient>
    <linearGradient id="_É_πÌÚ_·ÂÁ_Ì_Á_Ë_548" data-name="É‡‰¥πÌÚ ·ÂÁ Ì‡Á‚Ë 548" x1="46.8" y1="484.5" x2="53.7" y2="464.6" gradientTransform="translate(0 504) scale(1 -1)" gradientUnits="userSpaceOnUse">
      <stop offset="0" stop-color="#94d7f9"/>
      <stop offset="1" stop-color="#3e8bde"/>
    </linearGradient>
    <linearGradient id="_É_πÌÚ_·ÂÁ_Ì_Á_Ë_5501" data-name="É‡‰¥πÌÚ ·ÂÁ Ì‡Á‚Ë 550" x1="122.4" y1="445.4" x2="120.8" y2="465.5" xlink:href="#_É_πÌÚ_·ÂÁ_Ì_Á_Ë_550"/>
    <linearGradient id="_É_πÌÚ_·ÂÁ_Ì_Á_Ë_5502" data-name="É‡‰¥πÌÚ ·ÂÁ Ì‡Á‚Ë 550" x1="105.5" y1="436.9" x2="116.6" y2="435.1" xlink:href="#_É_πÌÚ_·ÂÁ_Ì_Á_Ë_550"/>
    <linearGradient id="_É_πÌÚ_·ÂÁ_Ì_Á_Ë_110" data-name="É‡‰¥πÌÚ ·ÂÁ Ì‡Á‚Ë 110" x1="-459.4" y1="52.5" x2="-462" y2="85.4" gradientTransform="translate(365.1 -281.6) rotate(-49.7) scale(1 -1)" gradientUnits="userSpaceOnUse">
      <stop offset=".3" stop-color="#4192f6"/>
      <stop offset="1" stop-color="#275d9d"/>
    </linearGradient>
    <linearGradient id="_É_πÌÚ_·ÂÁ_Ì_Á_Ë_1101" data-name="É‡‰¥πÌÚ ·ÂÁ Ì‡Á‚Ë 110" x1="-487.1" y1="38.5" x2="-468.9" y2="35.6" xlink:href="#_É_πÌÚ_·ÂÁ_Ì_Á_Ë_110"/>
    <linearGradient id="_É_πÌÚ_·ÂÁ_Ì_Á_Ë_5481" data-name="É‡‰¥πÌÚ ·ÂÁ Ì‡Á‚Ë 548" x1="14.8" y1="19.5" x2="30.2" y2="19.5" gradientTransform="matrix(1,0,0,1,0,0)" xlink:href="#_É_πÌÚ_·ÂÁ_Ì_Á_Ë_548"/>
    <linearGradient id="_É_πÌÚ_·ÂÁ_Ì_Á_Ë_5482" data-name="É‡‰¥πÌÚ ·ÂÁ Ì‡Á‚Ë 548" x1="8" y1="41.3" x2="35.6" y2="41.3" gradientTransform="matrix(1,0,0,1,0,0)" xlink:href="#_É_πÌÚ_·ÂÁ_Ì_Á_Ë_548"/>
    <linearGradient id="_É_πÌÚ_·ÂÁ_Ì_Á_Ë_551" data-name="É‡‰¥πÌÚ ·ÂÁ Ì‡Á‚Ë 551" x1="97.9" y1="474.5" x2="81.4" y2="406.7" gradientTransform="translate(0 504) scale(1 -1)" gradientUnits="userSpaceOnUse">
      <stop offset=".3" stop-color="#cd2cf5"/>
      <stop offset="1" stop-color="#66109c"/>
    </linearGradient>
    <linearGradient id="_É_πÌÚ_·ÂÁ_Ì_Á_Ë_552" data-name="É‡‰¥πÌÚ ·ÂÁ Ì‡Á‚Ë 552" x1="-118.9" y1="604.7" x2="-108.5" y2="608" gradientTransform="translate(346.5 593.4) rotate(-14.7) scale(1 -1)" gradientUnits="userSpaceOnUse">
      <stop offset="0" stop-color="#ad3626"/>
      <stop offset="1" stop-color="#eb5c2d"/>
    </linearGradient>
    <linearGradient id="_É_πÌÚ_·ÂÁ_Ì_Á_Ë_5521" data-name="É‡‰¥πÌÚ ·ÂÁ Ì‡Á‚Ë 552" x1="-109.2" y1="630.4" x2="-113.9" y2="642" xlink:href="#_É_πÌÚ_·ÂÁ_Ì_Á_Ë_552"/>
    <linearGradient id="_É_πÌÚ_·ÂÁ_Ì_Á_Ë_5522" data-name="É‡‰¥πÌÚ ·ÂÁ Ì‡Á‚Ë 552" x1="-137" y1="632.1" x2="-117.9" y2="632.4" xlink:href="#_É_πÌÚ_·ÂÁ_Ì_Á_Ë_552"/>
    <linearGradient id="_É_πÌÚ_·ÂÁ_Ì_Á_Ë_5491" data-name="É‡‰¥πÌÚ ·ÂÁ Ì‡Á‚Ë 549" x1="-131.5" y1="631" x2="-119.3" y2="610.7" gradientTransform="translate(346.5 593.4) rotate(-14.7) scale(1 -1)" xlink:href="#_É_πÌÚ_·ÂÁ_Ì_Á_Ë_549"/>
    <linearGradient id="_É_πÌÚ_·ÂÁ_Ì_Á_Ë_5503" data-name="É‡‰¥πÌÚ ·ÂÁ Ì‡Á‚Ë 550" x1="78.5" y1="429.8" x2="85.1" y2="410.5" xlink:href="#_É_πÌÚ_·ÂÁ_Ì_Á_Ë_550"/>
    <linearGradient id="_É_πÌÚ_·ÂÁ_Ì_Á_Ë_547" data-name="É‡‰¥πÌÚ ·ÂÁ Ì‡Á‚Ë 547" x1="93" y1="513.4" x2="119.7" y2="469.6" gradientTransform="translate(0 504) scale(1 -1)" gradientUnits="userSpaceOnUse">
      <stop offset="0" stop-color="#f5e087"/>
      <stop offset="1" stop-color="#d4379d"/>
    </linearGradient>
    <linearGradient id="_É_πÌÚ_·ÂÁ_Ì_Á_Ë_5483" data-name="É‡‰¥πÌÚ ·ÂÁ Ì‡Á‚Ë 548" x1="89.5" y1="467.9" x2="92.2" y2="457.6" xlink:href="#_É_πÌÚ_·ÂÁ_Ì_Á_Ë_548"/>
    <linearGradient id="_É_πÌÚ_·ÂÁ_Ì_Á_Ë_5484" data-name="É‡‰¥πÌÚ ·ÂÁ Ì‡Á‚Ë 548" x1="98.8" y1="438.5" x2="100.5" y2="433.8" xlink:href="#_É_πÌÚ_·ÂÁ_Ì_Á_Ë_548"/>
    <linearGradient id="_É_πÌÚ_·ÂÁ_Ì_Á_Ë_5504" data-name="É‡‰¥πÌÚ ·ÂÁ Ì‡Á‚Ë 550" x1="145.8" y1="443.4" x2="142.7" y2="433.6" xlink:href="#_É_πÌÚ_·ÂÁ_Ì_Á_Ë_550"/>
    <linearGradient id="_É_πÌÚ_·ÂÁ_Ì_Á_Ë_5505" data-name="É‡‰¥πÌÚ ·ÂÁ Ì‡Á‚Ë 550" x1="133" y1="413.9" x2="133.9" y2="392.8" xlink:href="#_É_πÌÚ_·ÂÁ_Ì_Á_Ë_550"/>
    <linearGradient id="_É_πÌÚ_·ÂÁ_Ì_Á_Ë_5506" data-name="É‡‰¥πÌÚ ·ÂÁ Ì‡Á‚Ë 550" x1="123" y1="379.3" x2="124" y2="358.2" xlink:href="#_É_πÌÚ_·ÂÁ_Ì_Á_Ë_550"/>
    <linearGradient id="_É_πÌÚ_·ÂÁ_Ì_Á_Ë_2073" data-name="É‡‰¥πÌÚ ·ÂÁ Ì‡Á‚Ë 207" x1="124.1" y1="431.3" x2="127.2" y2="422.4" xlink:href="#_É_πÌÚ_·ÂÁ_Ì_Á_Ë_207"/>
    <linearGradient id="_É_πÌÚ_·ÂÁ_Ì_Á_Ë_5485" data-name="É‡‰¥πÌÚ ·ÂÁ Ì‡Á‚Ë 548" x1="102.1" y1="385.8" x2="106.3" y2="373.9" xlink:href="#_É_πÌÚ_·ÂÁ_Ì_Á_Ë_548"/>
    <linearGradient id="_É_πÌÚ_·ÂÁ_Ì_Á_Ë_2074" data-name="É‡‰¥πÌÚ ·ÂÁ Ì‡Á‚Ë 207" x1="131.9" y1="387" x2="135" y2="378.1" xlink:href="#_É_πÌÚ_·ÂÁ_Ì_Á_Ë_207"/>
    <linearGradient id="_É_πÌÚ_·ÂÁ_Ì_Á_Ë_5486" data-name="É‡‰¥πÌÚ ·ÂÁ Ì‡Á‚Ë 548" x1="139.1" y1="478" x2="132.7" y2="467" xlink:href="#_É_πÌÚ_·ÂÁ_Ì_Á_Ë_548"/>
    <linearGradient id="_É_πÌÚ_·ÂÁ_Ì_Á_Ë_5492" data-name="É‡‰¥πÌÚ ·ÂÁ Ì‡Á‚Ë 549" x1="115.4" y1="471.5" x2="119.7" y2="447.9" xlink:href="#_É_πÌÚ_·ÂÁ_Ì_Á_Ë_549"/>
    <linearGradient id="_É_πÌÚ_·ÂÁ_Ì_Á_Ë_5487" data-name="É‡‰¥πÌÚ ·ÂÁ Ì‡Á‚Ë 548" x1="83.9" y1="409.3" x2="145.6" y2="408.1" xlink:href="#_É_πÌÚ_·ÂÁ_Ì_Á_Ë_548"/>
    <linearGradient id="_É_πÌÚ_·ÂÁ_Ì_Á_Ë_5471" data-name="É‡‰¥πÌÚ ·ÂÁ Ì‡Á‚Ë 547" x1="49.9" y1="416.2" x2="64.6" y2="453" xlink:href="#_É_πÌÚ_·ÂÁ_Ì_Á_Ë_547"/>
  </defs>
  <path class="st22" d="M17.9,158.3l95.3-44.2L45.1,46,1,141.3c-.6,1.5-3,7.6,3.5,13.5,7.1,6.3,12,4.2,13.5,3.5Z"/>
  <path class="st21" d="M35.6,66.6l-7.1,15.4c-2.3,5.5,38.2,46.4,61,43.1l23.7-11c-28.1,13-81.1-40-77.6-47.5Z"/>
  <path class="st27" d="M21.2,97.7l-1.6,3.5-5.6,12c0,4.7,24.3,29.1,39.6,28.6l19.3-9c-21,3.6-54.1-30-51.7-35.1Z"/>
  <path class="st26" d="M1.4,140.4c2,4.1,12,13.9,20.2,16.3l20.4-9.5h.1c-12.6,5.7-33.9-15.8-34.3-20.7l-6.5,13.9Z"/>
  <g class="st0">
    <path class="st7" d="M17.9,158.3l95.3-44.2L45.1,46,1,141.3c-.6,1.5-3,7.6,3.5,13.5,7.1,6.3,12,4.2,13.5,3.5Z"/>
  </g>
  <g class="st8">
    <path class="st6" d="M17.9,158.3l95.3-44.2L45.1,46,1,141.3c-.6,1.5-3,7.6,3.5,13.5,7.1,6.3,12,4.2,13.5,3.5Z"/>
  </g>
  <path class="st20" d="M134.7,57.5c.9-7.8-4.4-10.4-6.3-10.1,0,0-.3-2.5,3-3.3,2.2-.5,7.9,4.6,6.5,10.3l-3.3,3.2Z"/>
  <path class="st19" d="M114,113.6c-4.7,4.7-23.8-6.8-42.7-25.6-18.8-18.8-30.3-38-25.6-42.7,4.7-4.7,23.8,6.8,42.7,25.6,18.8,18.9,30.3,38,25.6,42.7Z"/>
  <path class="st12" d="M112.4,110.4c-3.6,3.6-20.7-7.7-38.3-25.3-17.5-17.6-28.9-34.7-25.3-38.3,3.6-3.6,20.7,7.7,38.3,25.3,17.5,17.6,28.9,34.7,25.3,38.3Z"/>
  <path class="st16" d="M99.4,91.8c4.4-5.1,8.6-1.1,11.2-4.7l-4.5-4.6c-2.6,3.6-6.4.2-11.1,5.2l4.4,4.1Z"/>
  <path class="st15" d="M46.8,29.9c6.1,3.6.7,8.6,4.1,11.4l4.8-4.3c-3.5-2.8,1.5-7.7-4.6-11.4l-4.3,4.2Z"/>
  <path class="st34" d="M116.1,49.1c.2,0,.3-1.1,2.7-2.8,2.5-1.8,8.1,1,8.8,1.4.8.4.1,7.4.1,7.4,0,0-7-7.5-10.5-5.7-3.5,1.7-1.2-.2-1.2-.2Z"/>
  <path class="st29" d="M117,66.5s-.3,2.7-1.5,4c-2.3,2.2-5.9-1.1-10.5,0,0,0,2.1-5.4,2.3-5.8,0,0,1.9-1.1,3.8,0,1.9,1.1,3.6,1.4,4.8.8,1.2-.6,1.1,1,1.1,1Z"/>
  <path class="st11" d="M129.4,54.4s-4.5,2.1-5.1,2.4c-.6.3-1.9-10.2,1.3-11.3,3.3-1.1,5.5-1.4,5.9-1.5.3,0-5.7.5-2.1,10.4Z"/>
  <path class="st11" d="M115.5,70.5c1.9-1.9,4.4-4.8,4.3-5.6-.6-5.2-4.8-16.5-.9-18.6,0,0-3.6,2.5-4.7,3.3-1.1.8-1.9,2.8-1.8,6.1.2,5.8,4.9,13.1,3.2,14.8Z"/>
  <g>
    <path class="st13" d="M9.5,32.8c.1-.3-1.1-1.4-.6-6.4.4-5,9.8-9.1,11.1-9.6,1.3-.5,9.4,7.7,9.4,7.7,0,0-16.8.8-18.3,7.1-1.6,6.2-1.5,1.3-1.5,1.3Z"/>
    <path class="st23" d="M32.2,50.1s3.2,3.2,3.4,6.2c.4,5.2-7.7,6.2-11,13.2,0,0-4.5-8.3-4.8-9,0,0,.5-3.5,3.9-4.7,3.4-1.3,5.6-3.1,6.1-5.2.5-2.2,2.4-.4,2.4-.4Z"/>
    <path class="st43" d="M30.2,21.8s-2.2,7.8-2.5,8.9c-.3,1.1-14.8-8.4-12.7-13.6,2.2-5.2,4.1-8.4,4.4-8.9.3-.5-5.3,7.7,10.8,13.6Z"/>
    <path class="st41" d="M35.6,56.2c-.5-4.4-1.4-10.6-2.5-11.3-7.1-4.7-25.7-11.5-24.2-18.5,0,0-.6,7.2-.8,9.4-.2,2.2,1.5,5.3,5.7,8.8,7.5,5.9,21.5,7.8,21.8,11.7Z"/>
  </g>
  <path class="st17" d="M102.7,28.8c-3.1,21.7-24.6,42.4-24.6,42.4l2.9,4.4s23.4-24.4,26.4-46.1l-4.7-.7Z"/>
  <g>
    <path class="st18" d="M77.6,40.5c-.5,2.5-2.6,3.4-4.3,3.4l1.2-5.9s3.1-.1,2.7-2.1l.8,2.7-.5,1.9Z"/>
    <path class="st33" d="M77.4,10s1.7-1.4,2.2-4.1c.5-2.8-6.5-5.8-6.5-5.8l-1.5,5.5s5.4,1.8,4.3,3.2c-1.2,1.4,1.6,1.3,1.6,1.3Z"/>
    <path class="st32" d="M79.6,5.9s-.9,5.1-1.1,5.7c-.6,2.1-3.4,3.5-9,4.1-5.5.7-7,1.4-7.3,1.5-.2.1-4-1.6-4-1.6l-.4-2.6s.5-1.2,3-1.5c4.5-.5,18-1.7,18.7-5.6Z"/>
    <path class="st36" d="M56.6,18.4c-.3,1,1.6,2.2,6.1,5.4,4.5,3.3,16.3,12,14.9,16.6l1.3-6.4s-1.1-4.5-5-8.2c-6.1-5.7-16.1-11-16-13l-1.2,5.5Z"/>
  </g>
  <path class="st35" d="M81.9,85.7c1,0,1.7-.8,1.7-1.7s-.8-1.7-1.7-1.7-1.7.8-1.7,1.7.8,1.7,1.7,1.7Z"/>
  <path class="st14" d="M106,16.2c2.4,0,4.3-1.9,4.3-4.3s-1.9-4.3-4.3-4.3-4.3,1.9-4.3,4.3,1.9,4.3,4.3,4.3Z"/>
  <path class="st40" d="M89.7,38.8c1,0,1.7-.8,1.7-1.7s-.8-1.7-1.7-1.7-1.7.8-1.7,1.7.8,1.7,1.7,1.7Z"/>
  <path class="st37" d="M100,70.5c1,0,1.7-.8,1.7-1.7s-.8-1.7-1.7-1.7-1.7.8-1.7,1.7.8,1.7,1.7,1.7Z"/>
  <path class="st30" d="M144.5,66.3c1,0,1.7-.8,1.7-1.7s-.8-1.7-1.7-1.7-1.7.8-1.7,1.7.8,1.7,1.7,1.7Z"/>
  <path class="st31" d="M133.5,102.9c1,0,1.7-.8,1.7-1.7s-.8-1.7-1.7-1.7-1.7.8-1.7,1.7.8,1.7,1.7,1.7Z"/>
  <path class="st28" d="M123.5,137.5c1,0,1.7-.8,1.7-1.7s-.8-1.7-1.7-1.7-1.7.8-1.7,1.7.8,1.7,1.7,1.7Z"/>
  <path class="st25" d="M126.3,82.1c1.8,0,3.3-1.5,3.3-3.3s-1.5-3.3-3.3-3.3-3.3,1.5-3.3,3.3,1.5,3.3,3.3,3.3Z"/>
  <path class="st42" d="M105,130.8c2.4,0,4.4-2,4.4-4.4s-2-4.4-4.4-4.4-4.4,2-4.4,4.4,2,4.4,4.4,4.4Z"/>
  <path class="st4" d="M122,114.8c1.8,0,3.3-1.5,3.3-3.3s-1.5-3.3-3.3-3.3-3.3,1.5-3.3,3.3,1.5,3.3,3.3,3.3Z"/>
  <path class="st24" d="M134,126.4c1.8,0,3.3-1.5,3.3-3.3s-1.5-3.3-3.3-3.3-3.3,1.5-3.3,3.3,1.5,3.3,3.3,3.3Z"/>
  <path class="st39" d="M135.8,33.5c1,0,1.7-.8,1.7-1.7s-.8-1.7-1.7-1.7-1.7.8-1.7,1.7.8,1.7,1.7,1.7Z"/>
  <path class="st44" d="M116.3,40.9c1.9,0,3.5-1.6,3.5-3.5s-1.6-3.5-3.5-3.5-3.5,1.6-3.5,3.5,1.6,3.5,3.5,3.5Z"/>
  <path class="st4" d="M35.6,38.8c1.9,0,3.5-1.6,3.5-3.5s-1.6-3.5-3.5-3.5-3.5,1.6-3.5,3.5,1.6,3.5,3.5,3.5Z"/>
  <path class="st38" d="M101.5,107.6c17.7-14.5,47.6-17.5,47.6-17.5l1-6.7s-35.4,4.2-54.2,20.5c2,1.4,3.9,2.6,5.6,3.7Z"/>
  <path class="st45" d="M57.2,65.9c1.2,1.6,2.5,3.2,3.9,4.9,3.8-8.3,3-14.8,3-14.8l-4.6-2.9c.5,5.1-1.1,10-2.2,12.8Z"/>
</svg>