<?xml version="1.0" encoding="UTF-8"?>
<svg id="Calque_1" xmlns="http://www.w3.org/2000/svg" version="1.1" viewBox="0 0 53 54">
  <!-- Generator: Adobe Illustrator 29.5.0, SVG Export Plug-In . SVG Version: 2.1.0 Build 137)  -->
  <defs>
    <style>
      .st0 {
        fill: #d8d800;
      }

      .st1 {
        fill: #646e78;
      }
    </style>
  </defs>
  <rect class="st1" x=".2" y=".2" width="52.5" height="53.5" rx="16.4" ry="16.4"/>
  <path class="st0" d="M37.2,11.8H15.8c-1,0-1.9.9-1.9,1.9v8c0,8.6,4.7,16.5,12.3,20.6.2.1.4.1.6,0,7.6-4,12.3-12,12.3-20.6v-8c0-1-.8-1.9-1.9-1.9ZM34,21.8l-9,8.5c-.2.2-.5.3-.9.3-.3,0-.7-.1-.9-.4l-3-3c-.5-.5-.5-1.3,0-1.8.5-.5,1.3-.5,1.8,0,0,0,0,0,0,0l2.1,2.2,8.1-7.6c.5-.5,1.3-.5,1.8,0,.5.5.5,1.3,0,1.8Z"/>
</svg>