<?xml version="1.0" encoding="UTF-8"?>
<svg id="Calque_1" xmlns="http://www.w3.org/2000/svg" version="1.1" viewBox="0 0 53 54">
  <!-- Generator: Adobe Illustrator 29.5.0, SVG Export Plug-In . SVG Version: 2.1.0 Build 137)  -->
  <defs>
    <style>
      .st0 {
        fill: #d8d800;
      }

      .st1 {
        fill: #646e78;
      }
    </style>
  </defs>
  <rect class="st1" x=".2" y=".2" width="52.5" height="53.5" rx="16.4" ry="16.4"/>
  <g>
    <path class="st0" d="M36.2,35.3c-2.6,0-4.8-2.1-4.8-4.8s2.1-4.8,4.8-4.8h2.9c.2,0,.3-.1.3-.3v-3.2c0-1.8-1.4-3.2-3.2-3.2H14.6c-1.8,0-3.2,1.4-3.2,3.2v16.5c0,1.8,1.4,3.2,3.2,3.2h21.6c1.8,0,3.2-1.4,3.2-3.2v-3.2c0-.2-.1-.3-.3-.3h-2.9Z"/>
    <path class="st0" d="M40,27.6h-3.8c-1.6,0-2.9,1.3-2.9,2.9s1.3,2.9,2.9,2.9h3.8c.9-.2,1.6-1,1.6-1.9v-1.9c0-.9-.7-1.7-1.6-1.9Z"/>
    <path class="st0" d="M36.4,13.3c0-.4-.4-.8-.7-1-.4-.2-.8-.3-1.2-.2l-16.3,4.4c-.1,0-.2.2-.2.3,0,.2.1.3.3.3h18.8c0,0,.2,0,.2-.1,0,0,0,0,0-.2l-.9-3.6Z"/>
  </g>
</svg>