<?xml version="1.0" encoding="UTF-8"?>
<svg id="Calque_1" xmlns="http://www.w3.org/2000/svg" version="1.1" viewBox="0 0 28.7 30.3">
  <!-- Generator: Adobe Illustrator 29.5.0, SVG Export Plug-In . SVG Version: 2.1.0 Build 137)  -->
  <defs>
    <style>
      .st0 {
        fill: #ccc;
      }
    </style>
  </defs>
  <path class="st0" d="M14.4,15.8c3.4,0,6.1-2.7,6.1-6.1s-2.7-6.1-6.1-6.1-6.1,2.7-6.1,6.1,2.7,6.1,6.1,6.1ZM10.8,8.7c0-.2.2-.3.4-.4.2,0,.4,0,.5,0,1.3.8,2.9,1.2,4.4,1.2.4,0,.8,0,1.1,0,.2,0,.4,0,.5.2.2.1.3.4.2.6-.2,2-2,3.5-4,3.4s-3.5-2-3.4-4h0c0-.3,0-.6.1-.9Z"/>
  <path class="st0" d="M14.4,17c-5.1,0-9.2,4.1-9.2,9.2s.3.6.6.6h17.2c.3,0,.6-.3.6-.6,0-5.1-4.1-9.2-9.2-9.2Z"/>
</svg>