<?xml version="1.0" encoding="UTF-8"?>
<svg id="Calque_1" xmlns="http://www.w3.org/2000/svg" version="1.1" viewBox="0 0 53 54">
  <!-- Generator: Adobe Illustrator 29.5.0, SVG Export Plug-In . SVG Version: 2.1.0 Build 137)  -->
  <defs>
    <style>
      .st0 {
        fill: #d8d800;
      }

      .st1 {
        fill: #646e78;
      }
    </style>
  </defs>
  <rect class="st1" x=".2" y=".2" width="52.5" height="53.5" rx="16.4" ry="16.4"/>
  <g>
    <path class="st0" d="M18.2,19.6c3-1.9,7.6-4,11-3.2.4,0,.7.5.6.9,0,.4-.5.7-.9.6,0,0,0,0,0,0-2-.2-4,.1-5.8,1-.3.1-.5.5-.4.8.6,2.1,2.9,2.8,5.1,2.5,2.7-.4,6.8-3.8,7.6-7.1,0-.2,0-.5-.1-.6-.1-.2-.4-.3-.6-.3-1.4-.1-2.8-.5-4.1-1.2-1.1-.6-2.3-1-3.6-1.1-1.4-.2-2.8.3-3.7,1.3-.5.6-.7,1.4-.7,2.2,0,.3-.1.5-.4.6-1.7.7-3.3,1.5-4.8,2.5-.4.2-.4.7-.2,1.1s.7.4,1.1.2h0Z"/>
    <path class="st0" d="M19.5,39.7h-3.8c-.4,0-.6.3-.6.6v.6c0,.7.6,1.3,1.3,1.3h2.5c.7,0,1.3-.6,1.3-1.3v-.6c0-.4-.3-.6-.6-.6Z"/>
    <path class="st0" d="M37.3,39.7h-3.8c-.4,0-.6.3-.6.6v.6c0,.7.6,1.3,1.3,1.3h2.5c.7,0,1.3-.6,1.3-1.3v-.6c0-.4-.3-.6-.6-.6Z"/>
    <path class="st0" d="M38.7,33.5l-.9-.9c-.5-.5-.9-1.1-1.2-1.7l-2.2-5.5c-.3-.7-1-1.2-1.8-1.2h-12.5c-.8,0-1.5.5-1.8,1.2l-2.2,5.5c-.3.6-.6,1.2-1.1,1.7l-.9.9c-.3.3-.5.7-.5,1.2v2.3c0,.9.7,1.5,1.6,1.5h22.2c.9,0,1.6-.7,1.6-1.6v-2.2c0-.4-.2-.9-.5-1.2ZM33.4,30.2c-.1.2-.3.3-.5.3h-12.7c-.2,0-.4-.1-.5-.3,0-.2,0-.4,0-.6l1-2.5c0-.2.3-.4.6-.4h10.7c.3,0,.5.2.6.4l1,2.5c0,.2,0,.4-.2.6Z"/>
  </g>
</svg>