<?xml version="1.0" encoding="UTF-8"?>
<svg id="Calque_1" xmlns="http://www.w3.org/2000/svg" version="1.1" viewBox="0 0 53 54">
  <!-- Generator: Adobe Illustrator 29.5.0, SVG Export Plug-In . SVG Version: 2.1.0 Build 137)  -->
  <defs>
    <style>
      .st0 {
        fill: #d8d800;
      }

      .st1 {
        fill: #646e78;
      }
    </style>
  </defs>
  <rect class="st1" x=".2" y=".2" width="52.5" height="53.5" rx="16.4" ry="16.4"/>
  <g>
    <path class="st0" d="M24.8,19.4c3.1-.2,5.9,1.8,6.6,4.8.1.7.8,1.1,1.5,1,.7-.1,1.1-.8,1-1.5,0,0,0,0,0,0-1-4.2-5-7-9.3-6.7-4.4.4-7.9,3.8-8.3,8.2-.3,4.3,2.4,8.1,6.5,9.3.7.2,1.4-.2,1.6-.9,0,0,0,0,0,0,.2-.7-.2-1.4-.9-1.6,0,0,0,0,0,0-2.9-.8-4.9-3.6-4.6-6.6.3-3.1,2.8-5.6,5.9-5.9Z"/>
    <path class="st0" d="M25.3,37.2c-6.3,0-11.4-5.1-11.4-11.4,0-.1,0-.2,0-.3.2-6,5.1-10.9,11.1-11.1,6.3-.2,11.6,4.8,11.8,11.1,0,.1,0,.2,0,.3,0,.7.6,1.3,1.3,1.3s1.3-.6,1.3-1.3c0-7.7-6.3-14-14-14-.1,0-.3,0-.4,0-7.4.3-13.3,6.2-13.6,13.6-.2,7.7,5.9,14.1,13.6,14.4.1,0,.3,0,.4,0,.7,0,1.3-.6,1.3-1.3s-.6-1.3-1.3-1.3Z"/>
    <path class="st0" d="M41.1,32.6l-14.8-7.9c-.5-.2-1-.2-1.4.2-.4.4-.4.9-.2,1.4l7.9,15.2c.2.4.6.6,1,.6.4,0,.9-.3,1-.7l2.1-4.7,4.3-2.1c.4-.2.6-.6.6-1,0-.4-.2-.8-.6-1Z"/>
  </g>
</svg>