<?xml version="1.0" encoding="UTF-8"?>
<svg id="Calque_1" xmlns="http://www.w3.org/2000/svg" version="1.1" viewBox="0 0 343.7 110.7">
  <!-- Generator: Adobe Illustrator 29.5.0, SVG Export Plug-In . SVG Version: 2.1.0 Build 137)  -->
  <defs>
    <style>
      .st0 {
        fill: #d8d800;
      }

      .st1 {
        fill: #fffdfc;
      }
    </style>
  </defs>
  <g>
    <path class="st1" d="M6.7,110.3v-19.2h6.3c1.2,0,2.3.2,3.3.7,1,.5,1.7,1.2,2.2,2.1.5.9.8,1.9.8,3s-.3,2.1-.9,3-1.4,1.6-2.4,2.1-2.1.8-3.4.8h-3.6v7.5h-2.3ZM9,100.6h4.3c.7,0,1.3-.2,1.9-.5.5-.3,1-.8,1.3-1.3.3-.6.5-1.2.5-1.9,0-1.1-.4-2-1.1-2.7-.8-.7-1.7-1-3-1h-3.9v7.4ZM17.5,110.3l-4.6-7.9,1.8-1.2,5.3,9.1h-2.6Z"/>
    <path class="st1" d="M29.3,110.7c-1.3,0-2.5-.3-3.6-.9-1-.6-1.8-1.5-2.4-2.5-.6-1.1-.9-2.3-.9-3.7s.3-2.7.9-3.7c.6-1.1,1.4-1.9,2.4-2.5,1-.6,2.2-.9,3.5-.9s2.5.3,3.6.9c1,.6,1.8,1.5,2.4,2.5.6,1.1.9,2.3.9,3.7s-.3,2.7-.9,3.7c-.6,1.1-1.4,1.9-2.4,2.5-1,.6-2.2.9-3.5.9ZM29.3,108.6c.9,0,1.7-.2,2.4-.7.7-.4,1.2-1,1.6-1.8.4-.8.6-1.7.6-2.7s-.2-1.9-.6-2.7c-.4-.8-.9-1.4-1.6-1.8-.7-.4-1.5-.7-2.4-.7s-1.7.2-2.4.7c-.7.4-1.2,1-1.6,1.8-.4.8-.6,1.7-.6,2.7s.2,1.9.6,2.7c.4.8.9,1.4,1.6,1.8.7.4,1.5.7,2.4.7Z"/>
    <path class="st1" d="M38.8,103.6v-7h2.2v7h-2.2ZM41,103.6c0,1.4.2,2.4.5,3.1.3.7.7,1.2,1.3,1.5s1.2.4,1.9.4c1.2,0,2.1-.4,2.8-1.3.7-.9,1-2.1,1-3.6h1.1c0,1.4-.2,2.7-.6,3.7-.4,1-1,1.8-1.8,2.4-.8.5-1.8.8-2.9.8s-2-.2-2.8-.6c-.8-.4-1.4-1.1-1.9-2.1-.4-.9-.7-2.2-.7-3.7v-.7h2.2ZM48.5,110.3v-2.5c-.1,0-.1-11.2-.1-11.2h2.2v13.7h-2.1Z"/>
    <path class="st1" d="M54.4,110.3v-19.2h2.2v19.2h-2.2Z"/>
    <path class="st1" d="M66.5,110.7c-1.3,0-2.5-.3-3.5-.9-1-.6-1.8-1.5-2.4-2.5-.6-1.1-.9-2.3-.9-3.7s.3-2.7.9-3.7c.6-1.1,1.4-1.9,2.4-2.5,1-.6,2.2-.9,3.5-.9s2.4.3,3.3.9c.9.6,1.7,1.5,2.2,2.6.5,1.1.8,2.5.8,4h-11.3l.5-.5c0,1.1.2,2,.6,2.8.4.8.9,1.4,1.7,1.8.7.4,1.5.6,2.4.6s1.8-.2,2.5-.7c.7-.5,1.2-1.1,1.6-1.8l1.9,1c-.3.7-.8,1.3-1.4,1.9-.6.5-1.3.9-2,1.2s-1.6.4-2.6.4ZM62,102.5l-.6-.4h9.5l-.6.5c0-.9-.2-1.6-.5-2.3-.3-.6-.8-1.1-1.4-1.5-.6-.3-1.3-.5-2-.5s-1.5.2-2.1.5c-.7.3-1.2.8-1.6,1.5-.4.6-.6,1.4-.6,2.3Z"/>
    <path class="st1" d="M74.8,110.3v-1.8l8.1-10h-8.1v-1.9h10.9v1.7l-8.1,10.1h8.2v1.9h-11Z"/>
    <path class="st1" d="M101.7,110.7c-1.3,0-2.5-.3-3.5-.9-1-.6-1.8-1.5-2.4-2.5-.6-1.1-.9-2.3-.9-3.7s.3-2.7.9-3.7c.6-1.1,1.4-1.9,2.4-2.5,1-.6,2.2-.9,3.5-.9s2.4.3,3.3.9c.9.6,1.7,1.5,2.2,2.6.5,1.1.8,2.5.8,4h-11.3l.5-.5c0,1.1.2,2,.6,2.8.4.8.9,1.4,1.7,1.8s1.5.6,2.4.6,1.8-.2,2.5-.7c.7-.5,1.2-1.1,1.6-1.8l1.9,1c-.3.7-.8,1.3-1.4,1.9-.6.5-1.3.9-2,1.2s-1.6.4-2.6.4ZM97.3,102.5l-.6-.4h9.5l-.6.5c0-.9-.2-1.6-.5-2.3-.3-.6-.8-1.1-1.4-1.5-.6-.3-1.3-.5-2-.5s-1.5.2-2.1.5c-.7.3-1.2.8-1.6,1.5-.4.6-.6,1.4-.6,2.3Z"/>
    <path class="st1" d="M110.7,110.3v-13.7h2.1v2.5c.1,0,.1,11.2.1,11.2h-2.2ZM120.3,103.3c0-1.4-.2-2.4-.5-3.1-.3-.7-.7-1.2-1.3-1.5-.5-.3-1.2-.4-1.9-.4-1.2,0-2.1.4-2.8,1.3-.7.9-1,2.1-1,3.6h-1.1c0-1.4.2-2.7.6-3.7.4-1,1-1.8,1.8-2.4.8-.5,1.8-.8,2.9-.8s2,.2,2.8.6c.8.4,1.4,1.1,1.9,2,.4.9.7,2.2.6,3.7v.7h-2.2ZM120.3,110.3v-7h2.2v7h-2.2Z"/>
    <path class="st1" d="M131.3,98.6v-1.9h8.7v1.9h-8.7ZM137.9,110.7c-1.3,0-2.4-.3-3.1-1-.7-.7-1.1-1.7-1.1-2.9v-14.3h2.2v14.1c0,.7.2,1.2.6,1.6.4.4.9.6,1.6.6s.4,0,.6,0c.2,0,.5-.2.8-.5l.9,1.8c-.5.3-.9.5-1.3.6-.4.1-.8.2-1.2.2Z"/>
    <path class="st1" d="M149.1,110.7c-1.3,0-2.5-.3-3.6-.9-1-.6-1.8-1.5-2.4-2.5-.6-1.1-.9-2.3-.9-3.7s.3-2.7.9-3.7c.6-1.1,1.4-1.9,2.4-2.5,1-.6,2.2-.9,3.5-.9s2.5.3,3.6.9c1,.6,1.8,1.5,2.4,2.5.6,1.1.9,2.3.9,3.7s-.3,2.7-.9,3.7c-.6,1.1-1.4,1.9-2.4,2.5-1,.6-2.2.9-3.5.9ZM149.1,108.6c.9,0,1.7-.2,2.4-.7.7-.4,1.2-1,1.6-1.8.4-.8.6-1.7.6-2.7s-.2-1.9-.6-2.7c-.4-.8-.9-1.4-1.6-1.8-.7-.4-1.5-.7-2.4-.7s-1.7.2-2.4.7c-.7.4-1.2,1-1.6,1.8-.4.8-.6,1.7-.6,2.7s.2,1.9.6,2.7c.4.8.9,1.4,1.6,1.8.7.4,1.5.7,2.4.7Z"/>
    <path class="st1" d="M158.6,103.6v-7h2.2v7h-2.2ZM160.8,103.6c0,1.4.2,2.4.5,3.1.3.7.7,1.2,1.3,1.5s1.2.4,1.9.4c1.2,0,2.1-.4,2.8-1.3.7-.9,1-2.1,1-3.6h1.1c0,1.4-.2,2.7-.6,3.7s-1,1.8-1.8,2.4c-.8.5-1.8.8-2.9.8s-2-.2-2.8-.6-1.4-1.1-1.9-2.1c-.4-.9-.7-2.2-.7-3.7v-.7h2.2ZM168.4,110.3v-2.5c-.1,0-.1-11.2-.1-11.2h2.2v13.7h-2.1Z"/>
    <path class="st1" d="M172.8,98.6v-1.9h8.7v1.9h-8.7ZM179.4,110.7c-1.3,0-2.4-.3-3.1-1-.7-.7-1.1-1.7-1.1-2.9v-14.3h2.2v14.1c0,.7.2,1.2.6,1.6.4.4.9.6,1.6.6s.4,0,.6,0c.2,0,.5-.2.8-.5l.9,1.8c-.5.3-.9.5-1.3.6-.4.1-.8.2-1.2.2Z"/>
    <path class="st1" d="M190.6,110.7c-1.3,0-2.5-.3-3.5-.9-1-.6-1.8-1.5-2.4-2.5-.6-1.1-.9-2.3-.9-3.7s.3-2.7.9-3.7c.6-1.1,1.4-1.9,2.4-2.5,1-.6,2.2-.9,3.5-.9s2.4.3,3.3.9c.9.6,1.7,1.5,2.2,2.6.5,1.1.8,2.5.8,4h-11.3l.5-.5c0,1.1.2,2,.6,2.8.4.8.9,1.4,1.7,1.8.7.4,1.5.6,2.4.6s1.8-.2,2.5-.7c.7-.5,1.2-1.1,1.6-1.8l1.9,1c-.3.7-.8,1.3-1.4,1.9-.6.5-1.3.9-2,1.2s-1.6.4-2.6.4ZM186.1,102.5l-.6-.4h9.5l-.6.5c0-.9-.2-1.6-.5-2.3-.3-.6-.8-1.1-1.4-1.5-.6-.3-1.3-.5-2-.5s-1.5.2-2.1.5c-.7.3-1.2.8-1.6,1.5-.4.6-.6,1.4-.6,2.3Z"/>
    <path class="st1" d="M212.4,110.7c-1.4,0-2.6-.3-3.6-.9-1-.6-1.9-1.5-2.4-2.5-.6-1.1-.9-2.3-.9-3.7s.3-2.7.9-3.7c.6-1.1,1.4-1.9,2.4-2.5,1-.6,2.2-.9,3.6-.9s2.5.3,3.5.9c1,.6,1.8,1.5,2.4,2.6l-2,.9c-.4-.7-.9-1.3-1.6-1.7-.7-.4-1.5-.6-2.4-.6s-1.7.2-2.4.7c-.7.4-1.2,1-1.6,1.8-.4.8-.6,1.7-.6,2.7s.2,1.9.6,2.7c.4.8.9,1.4,1.6,1.8.7.4,1.5.7,2.4.7s1.7-.2,2.4-.7c.7-.5,1.2-1.1,1.6-1.9l2,.9c-.5,1.2-1.3,2.1-2.4,2.7-1,.7-2.2,1-3.6,1Z"/>
    <path class="st1" d="M227.2,110.7c-1.3,0-2.5-.3-3.6-.9-1-.6-1.8-1.5-2.4-2.5-.6-1.1-.9-2.3-.9-3.7s.3-2.7.9-3.7c.6-1.1,1.4-1.9,2.4-2.5,1-.6,2.2-.9,3.5-.9s2.5.3,3.6.9c1,.6,1.8,1.5,2.4,2.5.6,1.1.9,2.3.9,3.7s-.3,2.7-.9,3.7c-.6,1.1-1.4,1.9-2.4,2.5-1,.6-2.2.9-3.5.9ZM227.2,108.6c.9,0,1.7-.2,2.4-.7.7-.4,1.2-1,1.6-1.8.4-.8.6-1.7.6-2.7s-.2-1.9-.6-2.7c-.4-.8-.9-1.4-1.6-1.8-.7-.4-1.5-.7-2.4-.7s-1.7.2-2.4.7c-.7.4-1.2,1-1.6,1.8-.4.8-.6,1.7-.6,2.7s.2,1.9.6,2.7c.4.8.9,1.4,1.6,1.8.7.4,1.5.7,2.4.7Z"/>
    <path class="st1" d="M237.1,110.3v-13.7h2.1v2.5c.1,0,.1,11.2.1,11.2h-2.2ZM246.7,103.3c0-1.4-.2-2.4-.5-3.1-.3-.7-.7-1.2-1.3-1.5-.5-.3-1.2-.4-1.9-.4-1.2,0-2.1.4-2.8,1.3-.7.9-1,2.1-1,3.6h-1.1c0-1.4.2-2.7.6-3.7.4-1,1-1.8,1.8-2.4.8-.5,1.8-.8,2.9-.8s2,.2,2.8.6c.8.4,1.4,1.1,1.9,2,.4.9.7,2.2.6,3.7v.7h-2.2ZM246.7,110.3v-7h2.2v7h-2.2Z"/>
    <path class="st1" d="M257.2,110.7c-1,0-1.9-.2-2.6-.5-.8-.3-1.4-.7-1.9-1.2-.5-.5-.9-1-1.1-1.6l1.9-.8c.3.6.8,1.1,1.4,1.5.6.4,1.3.6,2.1.6s1.6-.2,2.2-.5c.6-.3.9-.8.9-1.4s-.2-1-.6-1.4c-.4-.3-1.1-.6-1.9-.9l-1.3-.4c-1.2-.3-2.2-.8-2.9-1.5-.7-.7-1-1.4-1-2.3,0-1.3.4-2.3,1.3-3,.9-.7,2.1-1.1,3.8-1.1s1.5.1,2.2.4c.7.2,1.2.6,1.7,1,.5.4.8.9,1,1.5l-1.9.9c-.2-.6-.6-1.1-1.2-1.3s-1.2-.4-2-.4-1.5.2-2,.5c-.5.4-.7.9-.7,1.5s.2.7.6,1c.4.3,1,.6,1.7.8l1.4.4c.9.2,1.6.5,2.3,1,.6.4,1.1.9,1.4,1.5.3.5.5,1.1.5,1.8s-.2,1.5-.7,2.1c-.4.6-1,1.1-1.8,1.4-.8.3-1.6.5-2.6.5Z"/>
    <path class="st1" d="M271.3,110.7c-1.4,0-2.6-.3-3.6-.9-1-.6-1.9-1.5-2.4-2.5-.6-1.1-.9-2.3-.9-3.7s.3-2.7.9-3.7c.6-1.1,1.4-1.9,2.4-2.5,1-.6,2.2-.9,3.6-.9s2.5.3,3.5.9c1,.6,1.8,1.5,2.4,2.6l-2,.9c-.4-.7-.9-1.3-1.6-1.7-.7-.4-1.5-.6-2.4-.6s-1.7.2-2.4.7c-.7.4-1.2,1-1.6,1.8-.4.8-.6,1.7-.6,2.7s.2,1.9.6,2.7c.4.8.9,1.4,1.6,1.8.7.4,1.5.7,2.4.7s1.7-.2,2.4-.7c.7-.5,1.2-1.1,1.6-1.9l2,.9c-.5,1.2-1.3,2.1-2.4,2.7-1,.7-2.2,1-3.6,1Z"/>
    <path class="st1" d="M281.3,93.4c-.4,0-.7-.1-1-.4s-.4-.6-.4-1,.1-.7.4-1c.3-.3.6-.4,1-.4s.7.1,1,.4c.3.3.4.6.4,1s-.1.7-.4,1c-.3.3-.6.4-1,.4ZM280.1,110.3v-13.7h2.2v13.7h-2.2Z"/>
    <path class="st1" d="M292.4,110.7c-1.3,0-2.5-.3-3.5-.9-1-.6-1.8-1.5-2.4-2.5-.6-1.1-.9-2.3-.9-3.7s.3-2.7.9-3.7c.6-1.1,1.4-1.9,2.4-2.5,1-.6,2.2-.9,3.5-.9s2.4.3,3.3.9c.9.6,1.7,1.5,2.2,2.6.5,1.1.8,2.5.8,4h-11.3l.5-.5c0,1.1.2,2,.6,2.8.4.8.9,1.4,1.7,1.8.7.4,1.5.6,2.4.6s1.8-.2,2.5-.7c.7-.5,1.2-1.1,1.6-1.8l1.9,1c-.3.7-.8,1.3-1.4,1.9-.6.5-1.3.9-2,1.2-.8.3-1.6.4-2.6.4ZM287.9,102.5l-.6-.4h9.5l-.6.5c0-.9-.2-1.6-.5-2.3-.3-.6-.8-1.1-1.4-1.5-.6-.3-1.3-.5-2-.5s-1.5.2-2.1.5c-.7.3-1.2.8-1.6,1.5s-.6,1.4-.6,2.3Z"/>
    <path class="st1" d="M301.4,110.3v-13.7h2.1v2.5c.1,0,.1,11.2.1,11.2h-2.2ZM311,103.3c0-1.4-.2-2.4-.5-3.1-.3-.7-.7-1.2-1.3-1.5-.5-.3-1.2-.4-1.9-.4-1.2,0-2.1.4-2.8,1.3-.7.9-1,2.1-1,3.6h-1.1c0-1.4.2-2.7.6-3.7s1-1.8,1.8-2.4c.8-.5,1.8-.8,2.9-.8s2,.2,2.8.6c.8.4,1.4,1.1,1.9,2,.4.9.7,2.2.6,3.7v.7h-2.2ZM311,110.3v-7h2.2v7h-2.2Z"/>
    <path class="st1" d="M322.8,110.7c-1.4,0-2.6-.3-3.6-.9-1-.6-1.9-1.5-2.4-2.5-.6-1.1-.9-2.3-.9-3.7s.3-2.7.9-3.7c.6-1.1,1.4-1.9,2.4-2.5,1-.6,2.2-.9,3.6-.9s2.5.3,3.5.9c1,.6,1.8,1.5,2.4,2.6l-2,.9c-.4-.7-.9-1.3-1.6-1.7s-1.5-.6-2.4-.6-1.7.2-2.4.7c-.7.4-1.2,1-1.6,1.8-.4.8-.6,1.7-.6,2.7s.2,1.9.6,2.7c.4.8.9,1.4,1.6,1.8.7.4,1.5.7,2.4.7s1.7-.2,2.4-.7c.7-.5,1.2-1.1,1.6-1.9l2,.9c-.5,1.2-1.3,2.1-2.4,2.7-1,.7-2.2,1-3.6,1Z"/>
    <path class="st1" d="M337.5,110.7c-1.3,0-2.5-.3-3.5-.9-1-.6-1.8-1.5-2.4-2.5-.6-1.1-.9-2.3-.9-3.7s.3-2.7.9-3.7c.6-1.1,1.4-1.9,2.4-2.5,1-.6,2.2-.9,3.5-.9s2.4.3,3.3.9c.9.6,1.7,1.5,2.2,2.6.5,1.1.8,2.5.8,4h-11.3l.5-.5c0,1.1.2,2,.6,2.8.4.8.9,1.4,1.7,1.8.7.4,1.5.6,2.4.6s1.8-.2,2.5-.7c.7-.5,1.2-1.1,1.6-1.8l1.9,1c-.3.7-.8,1.3-1.4,1.9-.6.5-1.3.9-2,1.2-.8.3-1.6.4-2.6.4ZM333.1,102.5l-.6-.4h9.5l-.6.5c0-.9-.2-1.6-.5-2.3-.3-.6-.8-1.1-1.4-1.5-.6-.3-1.3-.5-2-.5s-1.5.2-2.1.5c-.7.3-1.2.8-1.6,1.5-.4.6-.6,1.4-.6,2.3Z"/>
  </g>
  <g>
    <path class="st0" d="M98.7,67.1c-4.7,0-8.8-1.1-12.5-3.2-3.6-2.1-6.4-5.1-8.5-8.8-2-3.7-3-8.1-3-12.9s1-9.2,3-12.9c2-3.7,4.8-6.7,8.4-8.8,3.6-2.1,7.7-3.2,12.4-3.2s8.7,1,12.3,3.1c3.4,2,6,4.6,7.9,8.1s0,.9-.4,1.1l-5.5,2.5c-.4.2-.8,0-1-.3-1.3-2.2-3-4-5.2-5.3-2.4-1.4-5.2-2.1-8.3-2.1s-5.9.8-8.2,2.3c-2.4,1.5-4.2,3.6-5.6,6.3-1.4,2.7-2,5.8-2,9.3s.7,6.6,2,9.3c1.4,2.7,3.3,4.8,5.7,6.3,2.4,1.5,5.2,2.3,8.3,2.3s5.9-.8,8.3-2.4c2.2-1.5,4-3.4,5.2-6,.2-.4.6-.5,1-.4l5.5,2.5c.4.2.6.7.4,1.1-1.9,3.7-4.5,6.6-7.9,8.8-3.6,2.3-7.7,3.4-12.4,3.4Z"/>
    <path class="st0" d="M146,67.1c-4.6,0-8.7-1.1-12.3-3.2-3.6-2.1-6.4-5.1-8.4-8.8-2-3.7-3-8.1-3-12.9s1-9.2,3-12.9c2-3.7,4.8-6.7,8.4-8.8,3.6-2.1,7.7-3.2,12.2-3.2s8.8,1.1,12.4,3.2c3.6,2.1,6.4,5.1,8.4,8.8,2,3.7,3,8.1,3,12.9s-1,9.2-3,12.9c-2,3.7-4.8,6.7-8.3,8.8-3.6,2.1-7.6,3.2-12.3,3.2ZM146,60c3.2,0,5.9-.8,8.3-2.3,2.3-1.5,4.2-3.6,5.6-6.3,1.4-2.7,2-5.8,2-9.3s-.7-6.7-2-9.3c-1.4-2.7-3.3-4.8-5.7-6.3-2.4-1.5-5.2-2.3-8.4-2.3s-5.9.8-8.2,2.3c-2.4,1.5-4.2,3.6-5.6,6.3-1.4,2.7-2,5.8-2,9.3s.7,6.6,2,9.3c1.4,2.7,3.3,4.8,5.7,6.3,2.4,1.5,5.2,2.3,8.3,2.3Z"/>
    <path class="st1" d="M233.5,9.5c-1.3,0-2.4-.5-3.3-1.4s-1.4-2.1-1.4-3.3.5-2.5,1.4-3.4c1-.9,2.1-1.4,3.3-1.4s2.5.5,3.4,1.4c.9.9,1.4,2,1.4,3.4s-.5,2.4-1.4,3.3c-.9,1-2,1.4-3.4,1.4ZM229.6,65.1V19.1c0-.4.4-.8.8-.8h6c.4,0,.8.4.8.8v46c0,.4-.4.8-.8.8h-6c-.4,0-.8-.4-.8-.8Z"/>
    <path class="st1" d="M283.4,1v24c0,.6-.8.8-1.1.4-1.3-1.7-2.7-3.9-4.4-5.1-3-2.1-6.5-3.1-10.5-3.1s-8,1-11.2,3.1c-3.2,2.1-5.8,5-7.6,8.8-1.8,3.7-2.7,8.1-2.7,13s.9,9.2,2.7,13c1.8,3.8,4.3,6.7,7.6,8.8,3.2,2.1,7,3.1,11.2,3.1s7.5-1,10.5-3.1c1.7-1.2,3.3-3.4,4.6-5.2s1.1-.3,1.1.3l.2,6.3c0,.3.3.6.6.6h6c.3,0,.6-.3.6-.6V1c0-.3-.3-.6-.6-.6h-6.4c-.3,0-.6.3-.6.6ZM276.5,57.8c-2.2,1.5-4.6,2.3-7.4,2.3s-5.6-.8-8-2.3c-2.3-1.5-4.2-3.6-5.5-6.4-1.3-2.7-2-5.8-2-9.3s.7-6.6,2-9.3c1.3-2.7,3.2-4.9,5.5-6.4,2.3-1.5,5-2.3,7.9-2.3s5.4.8,7.5,2.3c2.2,1.5,3.9,3.6,5.1,6.4,1.2,2.7,1.9,5.8,1.9,9.3s-.6,6.6-1.9,9.3c-1.2,2.7-2.9,4.9-5.1,6.4Z"/>
    <path class="st1" d="M331.1,57.7c-2.3,1.6-5.2,2.4-8.5,2.4s-6-.7-8.5-2.1-4.4-3.5-5.8-6.2c-1-2-1.6-4.2-1.9-6.8,0-.8.5-1.4,1.3-1.4h35c.5,0,1-.4,1-1-.1-4.9-1-9.2-2.7-12.9-1.8-3.9-4.3-7-7.5-9.2-3.2-2.2-7.1-3.3-11.5-3.3s-8.6,1.1-12.1,3.2c-3.5,2.1-6.3,5.1-8.3,8.8-2,3.7-3,8.1-3,12.9s1,9.2,3,12.9c2,3.7,4.8,6.7,8.3,8.8,3.6,2.1,7.6,3.2,12.3,3.2s6.3-.5,9-1.5c2.7-1,5-2.4,7-4.3,1.7-1.6,3.2-3.4,4.3-5.5s0-1.2-.4-1.4l-4.7-2.4c-.5-.3-1.1,0-1.4.4-1.2,2.2-2.9,4-4.9,5.4ZM314.6,25.8c2.3-1.2,4.8-1.8,7.4-1.8s5,.6,7,1.8c2,1.2,3.6,2.9,4.9,5.1.8,1.4,1.3,3,1.6,4.8s-.5,1.5-1.3,1.5h-25.7c-.8,0-1.4-.7-1.3-1.5.3-1.8.9-3.4,1.9-4.8,1.4-2.2,3.3-3.9,5.6-5.1Z"/>
    <path class="st1" d="M71.4.9c0,.2,0,.4,0,.5,0,0,0-.2,0-.2,0-.1,0-.2,0-.3Z"/>
    <path class="st1" d="M221.2,64.5l-14.6-24.9c-.3-.5,0-1.1.5-1.4s.8-.4,1.2-.6c3.4-1.7,6.1-4.1,8.1-7.1,2-3,3-6.4,3-10.3s-.9-7.3-2.8-10.3c-1.8-3-4.4-5.3-7.7-7-3.3-1.7-7-2.5-11.3-2.5h-20.4c-.5,0-.9.4-.9.9v63.6c0,.5.4.9.9.9h6.1c.5,0,.9-.4.9-.9v-23.8c0-.5.4-.9.9-.9h11.4c.3,0,.7,0,1,0s.7.2.9.5l14.5,24.8c.2.3.5.5.8.5h6.5c.7,0,1.2-.8.8-1.4ZM184.4,32V8.6c0-.5.4-.9.9-.9h12.2c4.1,0,7.5,1.2,10.1,3.5,2.6,2.3,3.9,5.4,3.9,9.1s-.6,4.6-1.7,6.5c-1.2,1.9-2.7,3.4-4.5,4.5-1.9,1.1-4,1.6-6.4,1.6h-13.6c-.5,0-.9-.4-.9-.9Z"/>
    <path class="st0" d="M64.9,48.4c-.4-.1-.8,0-1.1.4-1.1,1.5-4.4,5.8-6.8,7.4-2.2,1.5-4.7,2.5-7.4,3h0s0,0,0,0c-1.5.3-3,.4-4.7.4-3.4,0-6.7-.6-9.5-1.8-.9-.3-1.7-.8-2.6-1.3-3-1.7-5.5-4.2-7.3-7.2-.3-.6-.7-1.1-1-1.8-1.5-2.9-2.4-6.7-2.7-10.6,0-1,.5-2,1.6-2.4s.4,0,.7,0h19.3c7.8,0,15.1-2.8,20.7-8.3,2.4-2.4,4.4-5.1,5.9-8.1.1-.2.2-.4.3-.7,0,0,0-.1,0-.2h0s0,0,0,0c1.2-2.5,2-5.3,2.4-8.1.1-.8.6-5.6.7-8.1,0,0,0-.1,0-.2,0,0,0,0-.1,0h0c-11,0-29.8,0-30.3,0-5.6.2-10.6,1.6-14.9,4.2-2.4,1.4-4.5,3.2-6.4,5.2-1.8,1.9-3.3,4.1-4.6,6.5-.4.7-.7,1.4-1.1,2.2-.9,2-1.6,4.5-2,6.8-.2,1-1.1,1.8-2.2,1.8H.2c-.1,0-.2,0-.2.2v6.4c0,.1,0,.2.2.2h10.7c1.2,0,2.2,1,2.2,2.2.3,5.3,1.6,10.4,3.9,14.6.2.5.5.9.8,1.4,2.5,4.3,6,7.7,10.2,10.2,2.7,1.6,5.6,2.8,8.8,3.4,2.3.5,4.9.8,7.5.8s6.3-.4,9.1-1.1c1-.2,1.9-.6,2.9-.9,3.5-1.3,6.7-3.2,9.3-5.6,1.3-1.2,2.6-2.6,3.6-4h0s0,0,0,0v-.2c.1,0,.2,0,.2,0,.8-1.1,1.6-2.2,2.3-3.4.3-.5,0-1.2-.6-1.4l-6.2-1.9ZM22.6,24.7c.4-2.5,1.1-4.9,2.3-6.9.2-.3.3-.6.5-.8,2-3.1,4.8-5.6,8.1-7.3,3-1.6,6-2.4,13.6-2.4h16c.7,0,1.3.3,1.7.9.4.5.5,1.2.4,1.9,0,.3-.2.5-.2.8-.9,2.8-2.3,5.5-4.2,7.8-.3.4-.7.9-1.1,1.3-3.5,3.7-6.9,7.2-14.1,7.7-.1,0-.5,0-7.3,0s-10.9,0-13.5,0h0c-.6,0-1.2-.3-1.6-.8-.4-.5-.6-1.5-.5-2.1Z"/>
  </g>
</svg>